<?xml version="1.0" encoding="UTF-8" standalone="no"?>
<!-- Created with Inkscape (http://www.inkscape.org/) -->

<svg
   xmlns:dc="http://purl.org/dc/elements/1.1/"
   xmlns:cc="http://creativecommons.org/ns#"
   xmlns:rdf="http://www.w3.org/1999/02/22-rdf-syntax-ns#"
   xmlns:svg="http://www.w3.org/2000/svg"
   xmlns="http://www.w3.org/2000/svg"
   xmlns:sodipodi="http://sodipodi.sourceforge.net/DTD/sodipodi-0.dtd"
   xmlns:inkscape="http://www.inkscape.org/namespaces/inkscape"
   width="24"
   height="6"
   id="svg4020"
   version="1.1"
   inkscape:version="0.48.0 r9654"
   sodipodi:docname="bullet.svg"
   inkscape:export-filename="/Users/georgeweller/flash/ld20/src/data/bullet.png"
   inkscape:export-xdpi="90"
   inkscape:export-ydpi="90">
  <defs
     id="defs4022">
    <filter
       inkscape:collect="always"
       id="filter4552"
       x="-0.15485946"
       width="1.3097189"
       y="-0.13089312"
       height="1.2617862">
      <feGaussianBlur
         inkscape:collect="always"
         stdDeviation="0.20638346"
         id="feGaussianBlur4554" />
    </filter>
    <filter
       inkscape:collect="always"
       id="filter4594">
      <feGaussianBlur
         inkscape:collect="always"
         stdDeviation="0.054153745"
         id="feGaussianBlur4596" />
    </filter>
    <filter
       inkscape:collect="always"
       id="filter4598">
      <feGaussianBlur
         inkscape:collect="always"
         stdDeviation="0.053554394"
         id="feGaussianBlur4600" />
    </filter>
    <filter
       inkscape:collect="always"
       id="filter4602">
      <feGaussianBlur
         inkscape:collect="always"
         stdDeviation="0.053547072"
         id="feGaussianBlur4604" />
    </filter>
    <filter
       inkscape:collect="always"
       id="filter4606">
      <feGaussianBlur
         inkscape:collect="always"
         stdDeviation="0.058255484"
         id="feGaussianBlur4608" />
    </filter>
    <filter
       inkscape:collect="always"
       id="filter4649">
      <feGaussianBlur
         inkscape:collect="always"
         stdDeviation="0.088078602"
         id="feGaussianBlur4651" />
    </filter>
  </defs>
  <sodipodi:namedview
     id="base"
     pagecolor="#ffffff"
     bordercolor="#666666"
     borderopacity="1.0"
     inkscape:pageopacity="0.0"
     inkscape:pageshadow="2"
     inkscape:zoom="33.125"
     inkscape:cx="12"
     inkscape:cy="6.1980198"
     inkscape:current-layer="layer1"
     showgrid="true"
     inkscape:grid-bbox="true"
     inkscape:document-units="px"
     gridtolerance="1"
     inkscape:window-width="1280"
     inkscape:window-height="752"
     inkscape:window-x="0"
     inkscape:window-y="0"
     inkscape:window-maximized="0">
    <inkscape:grid
       type="xygrid"
       id="grid4028"
       empspacing="6"
       visible="true"
       enabled="true"
       snapvisiblegridlinesonly="true"
       spacingy="1px" />
  </sodipodi:namedview>
  <metadata
     id="metadata4025">
    <rdf:RDF>
      <cc:Work
         rdf:about="">
        <dc:format>image/svg+xml</dc:format>
        <dc:type
           rdf:resource="http://purl.org/dc/dcmitype/StillImage" />
        <dc:title></dc:title>
      </cc:Work>
    </rdf:RDF>
  </metadata>
  <g
     id="layer1"
     inkscape:label="Layer 1"
     inkscape:groupmode="layer"
     transform="translate(0,-10)">
    <path
       sodipodi:type="arc"
       style="fill:#df0112;fill-opacity:1;stroke:none"
       id="path4030"
       sodipodi:cx="2.9507425"
       sodipodi:cy="3.0267327"
       sodipodi:rx="1.5992575"
       sodipodi:ry="1.8920792"
       d="m 4.55,3.0267327 a 1.5992575,1.8920792 0 1 1 -3.198515,0 1.5992575,1.8920792 0 1 1 3.198515,0 z"
       transform="matrix(1.2505804,0,0,1.0570382,-0.69014063,9.8006279)" />
    <path
       transform="matrix(1.2505804,0,0,1.0570382,5.3098593,9.8006279)"
       d="m 4.55,3.0267327 a 1.5992575,1.8920792 0 1 1 -3.198515,0 1.5992575,1.8920792 0 1 1 3.198515,0 z"
       sodipodi:ry="1.8920792"
       sodipodi:rx="1.5992575"
       sodipodi:cy="3.0267327"
       sodipodi:cx="2.9507425"
       id="path4540"
       style="fill:#df0112;fill-opacity:1;stroke:none"
       sodipodi:type="arc" />
    <path
       sodipodi:type="arc"
       style="fill:#df0112;fill-opacity:1;stroke:none"
       id="path4542"
       sodipodi:cx="2.9507425"
       sodipodi:cy="3.0267327"
       sodipodi:rx="1.5992575"
       sodipodi:ry="1.8920792"
       d="m 4.55,3.0267327 a 1.5992575,1.8920792 0 1 1 -3.198515,0 1.5992575,1.8920792 0 1 1 3.198515,0 z"
       transform="matrix(1.2505804,0,0,1.0570382,11.309859,9.8006279)" />
    <path
       transform="matrix(1.2505804,0,0,1.0570382,17.309859,9.8006279)"
       d="m 4.55,3.0267327 a 1.5992575,1.8920792 0 1 1 -3.198515,0 1.5992575,1.8920792 0 1 1 3.198515,0 z"
       sodipodi:ry="1.8920792"
       sodipodi:rx="1.5992575"
       sodipodi:cy="3.0267327"
       sodipodi:cx="2.9507425"
       id="path4544"
       style="fill:#df0112;fill-opacity:1;stroke:none"
       sodipodi:type="arc" />
    <path
       style="fill:none;stroke:#ff0003;stroke-width:0.06571165;stroke-linecap:butt;stroke-linejoin:miter;stroke-miterlimit:4;stroke-opacity:1;stroke-dasharray:none;filter:url(#filter4594)"
       d="m 1.7262633,13.68793 c -0.056984,-0.08085 0.028492,-0.184821 0,-0.270297 -0.00672,-0.02015 -0.030033,-0.03003 -0.04505,-0.04505 -0.015016,-0.01502 -0.026055,-0.03555 -0.045049,-0.04505 -0.013431,-0.0067 -0.030033,0 -0.04505,0 -0.015016,0 -0.030033,0 -0.04505,0 -0.015016,0 -0.038334,-0.01343 -0.045049,0 -0.00845,0.0169 0,0.243476 0,0.270297 0,0.01502 0,0.03003 0,0.04505 0,0.01502 0.010618,0.03443 0,0.04505 -0.010618,0.01062 -0.038334,0.01343 -0.04505,0 -0.013431,-0.02686 0,-0.06007 0,-0.0901 0,-0.2774 -0.042473,-0.1022 0.1351485,-0.315346 0.034661,-0.04159 0.056276,-0.09287 0.090099,-0.135149 0.026533,-0.03317 0.064615,-0.05612 0.090099,-0.0901 0.020147,-0.02686 0.026424,-0.06216 0.045049,-0.0901 0.01178,-0.01767 0.035552,-0.02605 0.04505,-0.04505 0.00672,-0.01343 0,-0.03003 0,-0.04505 0,-0.01502 0.010618,-0.03443 0,-0.04505 -0.010618,-0.01062 -0.030237,0.0025 -0.04505,0 -0.075528,-0.01259 -0.1491465,-0.03659 -0.2252476,-0.04505 -0.059699,-0.0066 -0.120132,0 -0.180198,0 -0.060066,0 -0.120132,0 -0.180198,0 -0.030033,0 -0.068862,-0.02124 -0.090099,0 -0.021237,0.02124 0,0.06007 0,0.0901 0,0.120048 -0.00589,0.179508 0.04505,0.315347 0.019011,0.05069 0.060066,0.0901 0.090099,0.135148 0.066569,0.09985 0.1879208,0.248416 0.2252475,0.360396 0.00475,0.01425 0,0.03003 0,0.04505 0,0.124751 -0.04505,-0.03465 -0.04505,0.0901 0,0.01502 -0.013431,0.05176 0,0.04505 0.096853,-0.04843 0.1620115,-0.180198 0.270297,-0.180198 0.096153,0 0.1313847,0.15934 0.2252476,0.180198 0.065557,0.01457 0.124321,-0.05285 0.180198,-0.0901 0.1249464,-0.0833 0.2542149,-0.164114 0.3603976,-0.270297 0.076569,-0.07657 0.1317713,-0.173443 0.1801981,-0.270297 C 2.7832575,13.015523 2.7935408,12.8108 2.762402,12.56169 2.748842,12.453212 2.724132,12.342598 2.672303,12.246343 2.621869,12.152683 2.4479377,11.940359 2.3119069,11.885947 c -0.027885,-0.01115 -0.060066,0 -0.090099,0 -0.015017,0 0.033036,-0.009 0.045049,0 0.1562759,0.117207 0.240484,0.304888 0.3603961,0.450495 0.1284296,0.15595 0.2761114,0.295294 0.4054455,0.450495 0.128858,0.15463 -0.017898,0.02283 0.045049,0.180198 0.020108,0.05027 0.071088,0.08445 0.090099,0.135149 0.026885,0.07169 0.036594,0.149146 0.04505,0.225247 0.060706,0.546356 0.073201,0.453333 0,0.855941 -0.1088849,0.598867 0.035054,-0.06511 -0.1351485,0.360396 -0.012582,0.03145 0.015501,0.164697 0,0.180198 -0.010618,0.01062 -0.030481,-0.0036 -0.045049,0 -0.2561762,0.06404 -0.00665,0.04505 -0.3153465,0.04505 -0.120132,0 -0.2402641,0 -0.3603961,0 -0.060066,0 -0.120132,0 -0.180198,0 -0.1146323,0 -0.1184892,0.01666 -0.2252475,-0.0901 -0.038285,-0.03829 -0.060066,-0.0901 -0.090099,-0.135149 -0.036696,-0.05504 -0.1619295,-0.242272 -0.1801981,-0.315347 -0.00728,-0.02914 0.013431,-0.06324 0,-0.0901 -0.00672,-0.01343 -0.030033,0 -0.045049,0 -0.030033,0 -0.068862,-0.02124 -0.090099,0 -0.047486,0.04749 -0.060066,0.120132 -0.090099,0.180198 -0.045049,0.0901 -0.096405,0.177312 -0.1351485,0.270297 -0.053328,0.127987 -0.1206408,0.350468 -0.1351485,0.495545 -0.00897,0.08965 0,0.180198 0,0.270297 0,0.01759 0.021237,0.135148 -0.04505,0.135148 -0.047486,0 -0.089489,-0.032 -0.1351485,-0.04505 -0.059532,-0.01701 -0.1189057,-0.03629 -0.1801981,-0.04505 -0.044597,-0.0064 -0.090974,0.0088 -0.1351485,0 -0.095219,-0.01904 -0.2062037,-0.130028 -0.2252475,-0.225247 -0.028328,-0.141641 9.678e-4,-0.115043 0.04505,-0.225248 0.017636,-0.04409 0.023813,-0.09267 0.045049,-0.135148 0.024213,-0.04843 0.060066,-0.0901 0.090099,-0.135149 0.060066,-0.0901 0.1152267,-0.183668 0.180198,-0.270297 0.2795823,-0.372776 0.1740291,-0.1549 0.4054456,-0.540594 0.00848,-0.01414 0.1277614,-0.297867 0.180198,-0.315346 0.2059406,-0.06865 0.00429,0.03861 0.090099,0.0901 0.065658,0.03939 0.1910047,-0.02344 0.2252475,0.04505 0.036165,0.07233 -0.076805,0.145481 -0.090099,0.225247 -0.00349,0.02095 0.037162,0.06477 0.045049,0.04505 0.033924,-0.08481 0.091074,-0.191398 0.04505,-0.270297 C 1.6505995,13.558221 1.4762091,13.519487 1.3658673,13.417633 1.1846739,13.250378 1.0691834,13.019981 0.9153723,12.83199 0.8615811,12.766245 0.7952402,12.711858 0.7351742,12.651791 c -0.217545,-0.217544 0.04712,0.0589 -0.180198,-0.225247 -0.026533,-0.03317 -0.071105,-0.05211 -0.090099,-0.0901 -0.00672,-0.01343 0.030033,0 0.04505,0 0.015016,0 0.060066,0 0.045049,0 -0.030033,0 -0.090099,-0.03003 -0.090099,0 0,0.03358 0.066356,0.02131 0.090099,0.04505 0.010618,0.01062 0,0.03003 0,0.04505 0,0.150165 0,0.30033 0,0.450495 0,0.0901 0,0.180198 0,0.270297 0,0.03003 -0.021237,0.06886 0,0.0901 0.022525,0.02252 0.1126238,-0.02252 0.1351485,0 0.010618,0.01062 0,0.03003 0,0.04505 0,0.03003 0,0.06007 0,0.0901 0,0.01502 0.00475,0.0308 0,0.04505 -0.1087708,0.326312 0.012988,-0.07103 -0.090099,0.135149 -0.013431,0.02686 0.013431,0.06324 0,0.0901 -0.0095,0.01899 -0.035552,0.02605 -0.045049,0.04505 -0.00672,0.01343 0.010618,0.03443 0,0.04505 -0.010618,0.01062 -0.034431,-0.01062 -0.045049,0 -0.010618,0.01062 0.010618,0.03443 0,0.04505 -0.030033,0.03003 -0.085701,-0.03185 -0.090099,-0.04505 -0.00284,-0.0085 -0.00284,-0.261765 0,-0.270298 0.00672,-0.02015 0.02806,-0.03231 0.045049,-0.04505 0.043314,-0.03249 0.090099,-0.06007 0.1351485,-0.0901 0.045049,-0.03003 0.085384,-0.06877 0.1351485,-0.0901 0.056909,-0.02439 0.1301255,-0.0086 0.1801981,-0.04505 0.1202227,-0.08743 0.2102305,-0.21023 0.315346,-0.315346 0.1051155,-0.105115 0.210231,-0.210231 0.3153465,-0.315346 0.030033,-0.03003 0.066539,-0.05476 0.090099,-0.0901 0.00833,-0.0125 -0.00833,-0.03256 0,-0.04505 0.02356,-0.03534 0.066539,-0.05476 0.090099,-0.0901 0.00743,-0.01115 0,-0.157072 0,-0.180199 0,-0.04505 0,-0.0901 0,-0.135148 0,-0.01502 -0.015017,-0.04505 0,-0.04505 0.015016,0 0.00672,0.03162 0,0.04505 -0.066286,0.132572 -0.04505,-0.06993 -0.04505,0.135148 0,0.195215 0,0.39043 0,0.585644 0,0.07508 -0.013431,0.151376 0,0.225248 0.016989,0.09344 0.057643,0.181042 0.090099,0.270297 0.076693,0.210906 0.08578,0.216608 0.180198,0.405445 0.030033,0.06007 0.066519,0.117318 0.090099,0.180198 0.02174,0.05797 0.01736,0.12482 0.04505,0.180198 0.018994,0.03799 0.071105,0.05211 0.090099,0.0901 0.0053,0.01059 0,0.150604 0,0.180198 0,0.01502 0.010618,0.03443 0,0.04505 -0.010618,0.01062 -0.032555,-0.0083 -0.04505,0 -0.05301,0.03534 -0.090099,0.0901 -0.1351485,0.135149 -0.027807,0.02781 -0.083911,0.07067 -0.04505,0.0901 0.026862,0.01343 0.060066,0 0.090099,0 0.2171973,0 0.3420852,-0.05574 0.540594,-0.135149 0.075084,-0.03003 0.1529196,-0.05393 0.2252487,-0.0901 0.1209833,-0.06049 0.2998127,-0.179754 0.4054455,-0.270297 0.048372,-0.04146 0.090099,-0.0901 0.1351485,-0.135148 0.059836,-0.05984 0.1138005,-0.09481 0.1351486,-0.180198 0.00728,-0.02914 0,-0.06007 0,-0.0901 0,-0.217241 0.00361,-0.282893 -0.090099,-0.540594 -0.018503,-0.05088 -0.058629,-0.09109 -0.090099,-0.135149 -0.043641,-0.0611 -0.0935,-0.117725 -0.1351485,-0.180198 -0.018626,-0.02794 -0.018187,-0.06995 -0.04505,-0.0901 -0.072729,-0.05455 -0.1451595,-0.04505 -0.2252475,-0.04505 -0.045049,0 -0.091832,-0.01238 -0.1351485,0 -0.064572,0.01845 -0.1164884,0.06886 -0.1801981,0.0901 -0.1174747,0.03916 -0.2542133,0.02639 -0.360396,0.0901 -0.2255788,0.135347 -0.6974226,0.591664 -0.9009901,0.810891 -0.079805,0.08594 -0.1509797,0.179525 -0.2252475,0.270297 -0.1427498,0.174472 -0.1926528,0.211335 -0.2702971,0.405445 -0.023198,0.058 0.084474,0.214935 0.090099,0.225248 0.1159685,0.212609 0.2185435,0.390596 0.360396,0.585643 0.061487,0.08455 0.185978,0.197538 0.2252475,0.315347 0.00475,0.01425 0,0.03003 0,0.04505 0,0.06007 0.034913,0.13132 0,0.180198 -0.1186087,0.166052 -0.2461736,0.135148 -0.4054455,0.135148 -0.188982,0 -0.4044358,0.0093 -0.5856436,-0.04505 -0.040682,-0.0122 -0.060066,-0.06007 -0.090099,-0.0901 -0.098905,-0.09891 -0.1837282,-0.145739 -0.2252475,-0.270297 -0.00475,-0.01425 0,-0.03003 0,-0.04505 0,-0.03003 0,-0.06007 0,-0.0901 0,-0.242571 0.00152,-0.05112 0.090099,-0.405445 0.00886,-0.03544 0,-0.223449 0,-0.270297 0,-0.01502 -0.013431,-0.03833 0,-0.04505 0.026862,-0.01343 0.061607,0.0095 0.090099,0 0.020147,-0.0067 0.026055,-0.03555 0.045049,-0.04505 0.013431,-0.0067 0.030033,0 0.045049,0 0.030033,0 0.060649,-0.0059 0.090099,0 0.052329,0.01047 0.1737624,0.05578 0.2252475,0.0901 0.059045,0.03936 0.094872,0.135148 0.1801981,0.135148 0.015016,0 0,-0.03003 0,-0.04505 0,-0.03003 0,-0.06007 0,-0.0901 0,-0.135148 0,-0.270297 0,-0.405445"
       id="path4566"
       inkscape:connector-curvature="0"
       transform="matrix(1.6530945,0,0,1.4009338,-0.03267681,-6.3948933)" />
    <path
       style="fill:none;stroke:#ff0003;stroke-width:0.06505927;stroke-linecap:butt;stroke-linejoin:miter;stroke-miterlimit:4;stroke-opacity:1;stroke-dasharray:none;filter:url(#filter4602)"
       d="m 14.171713,12.649089 c 0.03053,0.06007 0.15165,0.14967 0.09158,0.180198 -0.06007,0.03053 -0.03676,-0.141035 -0.09158,-0.180198 -0.07967,-0.05691 -0.307925,-0.04505 -0.40396,-0.04505 -0.201755,0 -0.358079,-0.05084 -0.450495,0.180198 -0.01115,0.02789 0,0.06007 0,0.0901 0,0.03003 -0.01545,0.06435 0,0.0901 0.03278,0.05463 0.0901,0.0901 0.135148,0.135149 0.03003,0.03003 0.05612,0.06461 0.0901,0.0901 0.02686,0.02015 0.05892,0.03258 0.0901,0.04505 0.04409,0.01764 0.09268,0.02381 0.135149,0.04505 0.01899,0.0095 0.02605,0.03555 0.04505,0.04505 0.01343,0.0067 0.03443,-0.01062 0.04505,0 0.01062,0.01062 0,0.03003 0,0.04505 0,0.03003 0,0.06007 0,0.0901 0,0.07508 0,0.150165 0,0.225247 0,0.04505 0.0088,0.09097 0,0.135149 -0.0066,0.03293 -0.03691,0.05752 -0.04505,0.0901 -0.0073,0.02914 0,0.06007 0,0.0901 0,0.01502 -0.01343,0.03833 0,0.04505 0.02686,0.01343 0.06048,-0.0049 0.0901,0 0.06107,0.01018 0.119758,0.03162 0.180198,0.04505 0.268985,0.05977 0.177985,0.04505 0.450495,0.04505 0.07508,0 0.156236,0.02958 0.225248,0 0.329551,-0.141237 0.426009,-0.261233 0.585643,-0.540594 0.0075,-0.01304 -0.0067,-0.03162 0,-0.04505 0.0095,-0.019 0.03833,-0.0249 0.04505,-0.04505 0.0095,-0.02849 0,-0.06007 0,-0.0901 0,-0.01502 -0.0067,-0.03162 0,-0.04505 0.0095,-0.019 0.03555,-0.02605 0.04505,-0.04505 0.0067,-0.01343 0,-0.03003 0,-0.04505 0,-0.01502 0.01062,-0.03443 0,-0.04505 -0.03828,-0.03829 -0.09109,-0.05863 -0.135148,-0.0901 -0.0611,-0.04364 -0.120132,-0.0901 -0.180198,-0.135149 -0.120132,-0.0901 -0.238202,-0.183015 -0.360396,-0.270297 -0.04406,-0.03147 -0.08488,-0.06999 -0.135149,-0.0901 -0.02789,-0.01115 -0.06007,0 -0.0901,0 -0.01502,0 -0.04505,-0.01502 -0.04505,0 0,0.02124 0.02553,0.03668 0.04505,0.04505 0.08729,0.03741 0.181043,0.05764 0.270297,0.0901 0.03521,0.0128 0.286015,0.120272 0.360396,0.135149 0.0589,0.01178 0.120132,0 0.180198,0 0.01502,0 0.03003,0 0.04505,0 0.01502,0 0.03443,0.01062 0.04505,0 0.01062,-0.01062 0,-0.03003 0,-0.04505 0,-0.01502 0.01343,-0.03833 0,-0.04505 -0.02686,-0.01343 -0.06511,0.01666 -0.0901,0 -0.02794,-0.01863 -0.02642,-0.06216 -0.04505,-0.0901 -0.01178,-0.01767 -0.03327,-0.02738 -0.04505,-0.04505 -0.02743,-0.04115 -0.03845,-0.109326 -0.0901,-0.135149 -0.02686,-0.01343 -0.06324,0.01343 -0.0901,0 -0.01899,-0.0095 -0.03555,-0.02606 -0.04505,-0.04505 -0.0067,-0.01343 0.01343,-0.03833 0,-0.04505 -0.02686,-0.01343 -0.06161,0.0095 -0.0901,0 -0.02015,-0.0067 -0.02605,-0.03555 -0.04505,-0.04505 -0.01343,-0.0067 -0.03443,0.01062 -0.04505,0 -0.01062,-0.01062 0.01062,-0.03443 0,-0.04505 -0.01062,-0.01062 -0.03003,0 -0.04505,0 -0.01502,0 -0.03003,0 -0.04505,0 -0.03003,0 -0.06065,-0.0059 -0.0901,0 -0.04656,0.0093 -0.0901,0.03003 -0.135149,0.04505 -0.04505,0.01502 -0.09483,0.01996 -0.135148,0.04505 -0.08196,0.05101 -0.130189,0.180196 -0.226729,0.180196 -0.247153,0 -0.223762,-0.14685 -0.223762,-0.270297 0,-0.06007 0,-0.120132 0,-0.180198 0,-0.01502 0,-0.03003 0,-0.04505 0,-0.01502 0.01062,-0.03443 0,-0.04505 -0.01062,-0.01062 -0.04505,-0.01502 -0.04505,0 0,0.02124 0.06629,0.04505 0.04505,0.04505 -0.03358,0 -0.05652,-0.04505 -0.0901,-0.04505 -0.07035,0 -0.04505,0.127921 -0.04505,0.225248 0,0.29514 0.01425,-0.02618 -0.04505,0.270297 -0.0059,0.02945 0,0.06007 0,0.0901 0,0.07508 0,0.150165 0,0.225247 0,0.115436 -0.01375,0.2504 0,0.360396 0.0059,0.04712 0.02634,0.0915 0.04505,0.135149 0.104533,0.24391 0.184251,0.308629 0.450495,0.405445 0.07196,0.02617 0.152608,0.02084 0.225248,0.04505 0.06371,0.02124 0.118472,0.06364 0.180198,0.0901 0.04365,0.01871 0.0901,0.03003 0.135148,0.04505 0.04505,0.01502 0.08908,0.03353 0.135149,0.04505 0.03689,0.0092 0.0901,-0.01519 0.0901,0 0,0.01502 -0.0308,-0.0047 -0.04505,0 -0.03185,0.01062 -0.06007,0.03003 -0.0901,0.04505 -0.04505,0 -0.09183,-0.01238 -0.135148,0 -0.280584,0.08017 -0.08243,0.08038 -0.315347,0.180198 -0.05691,0.02439 -0.12146,0.02547 -0.180198,0.04505 -0.07672,0.02557 -0.145685,0.07563 -0.225247,0.0901 -0.08865,0.01612 -0.180568,-0.0082 -0.270297,0 -0.657519,0.05977 0.203003,0.04505 -0.450495,0.04505 -0.06007,0 -0.120132,0 -0.180198,0 -0.03003,0 -0.06096,0.0073 -0.0901,0 -0.07273,-0.01818 -0.08935,-0.04431 -0.135149,-0.0901 -0.01502,-0.01502 -0.02606,-0.03555 -0.04505,-0.04505 -0.01343,-0.0067 -0.03833,0.01343 -0.04505,0 -0.02252,-0.04505 0.01126,-0.0901 0,-0.135148 -0.02303,-0.09214 -0.06706,-0.17816 -0.0901,-0.270297 -0.0089,-0.03549 0,-0.150812 0,-0.180198 0,-0.01502 0,0.03003 0,0.04505 0,0.03003 0,0.06007 0,0.0901 0,0.01502 -0.0047,0.0308 0,0.04505 0.0488,0.146395 0.200909,0.229518 0.315347,0.315346 0.141739,0.106305 0.195493,0.163409 0.360396,0.225248 0.05797,0.02174 0.119757,0.03162 0.180198,0.04505 0.07475,0.01661 0.148942,0.03869 0.225247,0.04505 0.104753,0.0087 0.210231,0 0.315347,0 0.0901,0 0.180198,0 0.270297,0 0.07508,0 0.150165,0 0.225247,0 0.06007,0 0.120736,0.0085 0.180198,0 0.121938,0.07657 0.116489,-0.06886 0.180198,-0.0901 0.02849,-0.0095 0.06324,0.01343 0.0901,0 0.01343,-0.0067 -0.0067,-0.03162 0,-0.04505 0.102428,-0.204856 2.54e-4,0.313824 0.0901,-0.225248 0.0099,-0.05925 -0.01457,-0.121925 0,-0.180198 0.0081,-0.03257 0.03443,-0.05824 0.04505,-0.0901 0.01425,-0.04274 -0.01425,-0.09241 0,-0.135148 0.0067,-0.02015 0.04505,-0.02381 0.04505,-0.04505 0,-0.01502 -0.03003,0 -0.04505,0 -0.04505,0 -0.0901,0 -0.135149,0 -0.06007,0 -0.120595,0.0075 -0.180198,0 -0.06144,-0.0077 -0.119757,-0.03162 -0.180198,-0.04505 -0.07475,-0.01661 -0.151376,-0.0249 -0.225247,-0.04505 -0.09163,-0.02499 -0.179524,-0.06217 -0.270297,-0.0901 -0.104488,-0.03215 -0.216087,-0.04429 -0.315347,-0.0901 -0.09832,-0.04538 -0.17894,-0.122063 -0.270297,-0.180198 -0.147743,-0.09402 -0.304785,-0.173158 -0.450495,-0.270297 -0.06247,-0.04165 -0.117725,-0.0935 -0.180198,-0.135149 -0.107155,-0.07144 -0.242811,-0.08812 -0.360396,-0.135149 -0.03003,-0.01502 -0.06007,-0.03003 -0.0901,-0.04505 -0.03003,0 -0.06161,0.0095 -0.0901,0 -0.02015,-0.0067 -0.02606,-0.03555 -0.04505,-0.04505 -0.02686,-0.01343 -0.06511,0.01666 -0.0901,0 -0.03534,-0.02356 -0.05476,-0.06654 -0.0901,-0.0901 -0.01249,-0.0083 -0.04505,0.01502 -0.04505,0 0,-0.01502 0.03162,0.0067 0.04505,0 0.01899,-0.0095 0.02606,-0.03555 0.04505,-0.04505 0.08495,-0.04247 0.181371,-0.05675 0.270297,-0.0901 0.07572,-0.02839 0.148531,-0.06453 0.225248,-0.0901 0.103711,-0.03457 0.213311,-0.05085 0.315346,-0.0901 0.09402,-0.03616 0.178593,-0.09347 0.270297,-0.135149 0.207338,-0.09425 0.204522,-0.08492 0.405446,-0.135148 0.06007,-0.01502 0.118905,-0.03629 0.180198,-0.04505 0.0446,-0.0064 0.0901,0 0.135148,0 0.06007,0 0.120132,0 0.180198,0 0.06007,0 0.123957,-0.02109 0.180198,0 0.0703,0.02636 0.115008,0.0979 0.180198,0.135148 0.127195,0.07268 0.120824,0.01178 0.225248,0.0901 0.03398,0.02548 0.06007,0.06007 0.0901,0.0901 0.01502,0.01502 0.03327,0.02738 0.04505,0.04505 0.01863,0.02794 0.03003,0.06007 0.04505,0.0901 0.03003,0.06007 0.06886,0.116488 0.0901,0.180198 0.02421,0.07264 0.02084,0.152607 0.04505,0.225248 0.05471,0.164114 0.108907,0.157894 0.135149,0.315346 0.0074,0.04444 -0.0088,0.09097 0,0.135149 0.03626,0.181284 0.03287,0.0207 0.0901,0.135148 0.005,0.0101 0,0.169493 0,0.180198 0,0.02899 0.0076,0.28486 0,0.315347 -0.02402,0.09607 -0.134386,0.19496 -0.225248,0.225247 -0.02849,0.0095 -0.06007,0 -0.0901,0 -0.03003,0 -0.06096,0.0073 -0.0901,0 -0.0474,-0.01185 -0.209099,-0.119 -0.225247,-0.135148 -0.03828,-0.03829 -0.05628,-0.09287 -0.0901,-0.135149 -0.02653,-0.03317 -0.06007,-0.06007 -0.0901,-0.0901 -0.04505,-0.04505 -0.08331,-0.09812 -0.135149,-0.135148 -0.05465,-0.03903 -0.120132,-0.06007 -0.180198,-0.0901 -0.204759,-0.10238 -0.175365,-0.09392 -0.405445,-0.180198 -0.08893,-0.03335 -0.17816,-0.06706 -0.270297,-0.0901 -0.01457,-0.0036 -0.03256,0.0083 -0.04505,0 -0.03534,-0.02356 -0.05476,-0.06654 -0.0901,-0.0901 -0.01249,-0.0083 -0.03003,0 -0.04505,0 -0.08638,0 -0.06975,-0.02035 -0.135149,0.04505 -0.01502,0.01502 -0.03555,0.02606 -0.04505,0.04505 -0.005,0.0101 0,0.169493 0,0.180198 0,0.05421 -0.01015,0.129456 0,0.180198 0.01864,0.09321 0.09119,0.242086 0.135148,0.315346 0.127495,0.212492 0.275419,0.410568 0.450495,0.585644 0.03003,0.03003 0.06007,0.06007 0.0901,0.0901 0.03003,0.03003 0.05476,0.06654 0.0901,0.0901 0.01249,0.0083 0.03162,-0.0067 0.04505,0 0.01899,0.0095 0.02738,0.03327 0.04505,0.04505 0.02269,0.09925 0.09268,0.02381 0.135149,0.04505 0.01899,0.0095 0.02605,0.03555 0.04505,0.04505 0.01343,0.0067 0.03003,0 0.04505,0 0.03003,0 0.06007,0 0.0901,0 0.135148,0 0.270297,0 0.405445,0 0.04505,0 0.0901,0 0.135149,0 0.01502,0 0.03443,-0.01062 0.04505,0 0.01062,0.01062 0,0.03003 0,0.04505 0,0.01502 0.0094,0.03332 0,0.04505 -0.104672,0.13084 -0.276315,0.259961 -0.405445,0.360396 -0.234707,0.182549 -0.14803,0.119065 -0.450495,0.270297 -0.133108,0.06655 -0.261646,0.137058 -0.405446,0.180198 -0.355574,0.106672 -0.09265,0.006 -0.405445,0.04505 -0.043,0.0054 -0.222942,0.07211 -0.270297,0.04505 -0.08348,-0.0477 -0.14935,-0.121166 -0.225248,-0.180198 -0.05927,-0.0461 -0.127107,-0.08206 -0.180198,-0.135149 -0.05309,-0.05309 -0.08824,-0.121568 -0.135148,-0.180198 -0.04505,-0.05631 -0.0901,-0.06757 -0.135149,-0.135148 -0.0083,-0.01249 0.0047,-0.0308 0,-0.04505 -0.07191,-0.215736 -0.04505,0.07212 -0.04505,-0.270297 0,-0.06007 -0.01303,-0.121562 0,-0.180198 0.01844,-0.08296 0.106686,-0.286884 0.180198,-0.360396 0.05309,-0.05309 0.121568,-0.08825 0.180198,-0.135149 0.09158,-0.07327 0.172712,-0.160191 0.270297,-0.225247 0.08381,-0.05588 0.184875,-0.08176 0.270297,-0.135149 0.1406,-0.08788 0.03919,-0.118177 0.225247,-0.180198 0.04274,-0.01425 0.09241,0.01425 0.135149,0 0.05136,-0.01712 0.08174,-0.0812 0.135148,-0.0901 0.13331,-0.02222 0.27056,0.0084 0.405446,0 0.105976,-0.0066 0.209691,-0.03448 0.315346,-0.04505 0.04483,-0.0045 0.0901,0 0.135149,0 0.135148,0 0.270297,0 0.405445,0 0.03003,0 0.06007,0 0.0901,0 0.03003,0 0.06886,0.02124 0.0901,0 0.02124,-0.02124 0.02124,-0.06886 0,-0.0901 -0.02124,-0.02124 -0.06161,0.0095 -0.0901,0 -0.04427,-0.01476 -0.07433,-0.111494 -0.0901,-0.135148 -0.01178,-0.01767 -0.03003,-0.03003 -0.04505,-0.04505 -0.01502,-0.01502 -0.0249,-0.03833 -0.04505,-0.04505 -0.02849,-0.0095 -0.06161,0.0095 -0.0901,0 -0.167003,-0.05567 0.05491,-0.04505 -0.0901,-0.04505 -0.01502,0 -0.03833,0.01343 -0.04505,0 -0.05256,-0.105116 0.05631,-0.0901 -0.04505,-0.0901"
       id="path4576"
       inkscape:connector-curvature="0"
       transform="matrix(1.6706447,0,0,1.4141572,-8.0812683,-6.6058077)" />
    <path
       inkscape:connector-curvature="0"
       id="path4580"
       d="m 19.236472,13.900868 c 0.157742,-0.062 0.23328,-0.218525 0.362376,-0.315347 0.238888,-0.179165 0.518161,-0.245903 0.810892,-0.270297 0.07482,-0.0062 0.150624,-0.0083 0.225247,0 0.06154,0.0068 0.127107,0.01319 0.180198,0.04505 0.05848,0.03509 0.04505,0.129751 0.04505,0.180198 0,0.01502 0.0067,0.03162 0,0.04505 -0.0095,0.01899 -0.03003,0.03003 -0.04505,0.04505 -0.03003,0.03003 -0.05476,0.06654 -0.0901,0.0901 -0.0097,0.0064 -0.151155,0 -0.180198,0 -0.03003,0 -0.06511,0.01666 -0.0901,0 -0.02794,-0.01863 -0.03258,-0.05892 -0.04505,-0.0901 -0.01764,-0.04409 -0.03724,-0.08831 -0.04505,-0.135148 -0.01017,-0.06102 0,-0.24075 0,-0.315347 0,-0.03003 0,-0.06007 0,-0.0901 0,-0.01502 0.01062,-0.03443 0,-0.04505 -0.01062,-0.01062 -0.03443,0.01062 -0.04505,0 -0.01062,-0.01062 0.01062,-0.03443 0,-0.04505 -0.01062,-0.01062 -0.03833,-0.01343 -0.04505,0 -0.01343,0.02686 0.01343,0.06324 0,0.0901 -0.01899,0.03799 -0.07667,0.04981 -0.0901,0.0901 -0.019,0.05698 0,0.120132 0,0.180198 0,0.06007 0,0.120132 0,0.180198 0,0.235545 -0.02928,0.542837 0.04505,0.765842 0.03186,0.09556 0.0901,0.180198 0.135149,0.270297 0.04505,0.0901 0.07927,0.186481 0.135149,0.270297 0.279069,0.418604 0.01483,-0.03022 0.225247,0.180198 0.02374,0.02374 0.02131,0.06636 0.04505,0.0901 0.01062,0.01062 0.04505,-0.01502 0.04505,0 0,0.116961 -0.06378,0.0901 -0.135148,0.0901 -0.04505,0 -0.0901,0 -0.135149,0 -0.06007,0 -0.120499,0.0066 -0.180198,0 -0.0761,-0.0085 -0.154155,-0.01661 -0.225248,-0.04505 -0.09452,-0.03781 -0.322506,-0.199206 -0.405445,-0.270297 -0.04837,-0.04146 -0.0901,-0.0901 -0.135149,-0.135149 -0.0014,-0.0014 -0.162002,-0.1711 -0.180198,-0.180198 -0.08509,-0.04255 -0.02388,0.108568 -0.0901,-0.0901 -0.0047,-0.01425 -0.01062,-0.03443 0,-0.04505 0.01062,-0.01062 0.03111,0.0056 0.04505,0 0.478531,-0.191412 -0.105743,-0.02351 0.360396,-0.0901 0.04701,-0.0067 0.08831,-0.03724 0.135148,-0.04505 0.04444,-0.0074 0.0901,0 0.135149,0 0.06007,0 0.120132,0 0.180198,0 0.07508,0 0.150165,0 0.225248,0 0.06007,0 0.120595,-0.0075 0.180198,0 0.06144,0.0077 0.119125,0.03487 0.180198,0.04505 0.02814,0.0047 0.212088,-0.0088 0.225247,0 0.03534,0.02356 0.05476,0.06654 0.0901,0.0901 0.01115,0.0074 0.157071,0 0.180198,0 0.01502,0 0.04505,-0.01502 0.04505,0 0,0.01502 -0.03003,0 -0.04505,0 -0.158465,0 -0.204265,0.0261 -0.315346,-0.180198 -0.06754,-0.125431 -0.09266,-0.269471 -0.135149,-0.405445 -0.03261,-0.104346 -0.05795,-0.21086 -0.0901,-0.315347 -0.146237,-0.475272 -0.04323,-0.08282 -0.135148,-0.450495 -0.01502,-0.06007 -0.03291,-0.119486 -0.04505,-0.180198 -0.0029,-0.01473 -0.01062,-0.03443 0,-0.04505 0.01062,-0.01062 0.03024,-0.0025 0.04505,0 0.07553,0.01259 0.156761,0.01081 0.225247,0.04505 0.03003,0.01502 0.02355,0.0643 0.04505,0.0901 0.05438,0.06526 0.12923,0.112241 0.180198,0.180198 0.04029,0.05373 0.06007,0.120132 0.0901,0.180198 0.01502,0.03003 0.03846,0.05717 0.04505,0.0901 0.0088,0.04418 0,0.0901 0,0.135149 0,0.03003 0.01666,0.06511 0,0.0901 -0.01863,0.02794 -0.05824,0.03443 -0.0901,0.04505 -0.144223,0.04807 -0.352491,0.0832 -0.495544,0.04505 -0.237829,-0.06342 -0.480106,-0.270005 -0.675743,-0.405446 -0.350249,-0.24248 -0.177876,-0.08778 -0.405446,-0.315346 -0.04505,-0.04505 -0.0901,-0.0901 -0.135148,-0.135149 -0.01502,-0.01502 -0.03833,-0.0249 -0.04505,-0.04505 -0.0095,-0.02849 0.0037,-0.0603 0,-0.0901 -0.01133,-0.09064 -0.03372,-0.179661 -0.04505,-0.270297 -0.0032,-0.0256 0.0074,-0.214137 0,-0.225248 -0.02356,-0.03534 -0.06007,-0.06007 -0.0901,-0.0901 -0.01502,-0.01502 -0.02605,-0.03555 -0.04505,-0.04505 -0.01343,-0.0067 -0.03833,0.01343 -0.04505,0 -0.01343,-0.02686 0.02124,-0.06886 0,-0.0901 -0.02124,-0.02124 -0.06007,0 -0.0901,0 -0.01502,0 -0.03003,0 -0.04505,0 -0.01502,0 -0.03443,-0.01062 -0.04505,0 -0.01062,0.01062 0,0.03003 0,0.04505 0,0.01502 0,0.03003 0,0.04505 0,0.07508 0,0.150165 0,0.225247 0,0.01502 0,0.03003 0,0.04505 0,0.01502 -0.0067,0.03162 0,0.04505 0.0095,0.019 0.03412,0.02684 0.04505,0.04505 0.03455,0.05759 0.05404,0.123542 0.0901,0.180198 0.472549,0.742577 -0.0181,-0.02512 0.450495,0.495545 0.07244,0.08049 0.118101,0.181586 0.180198,0.270297 0.153169,0.218812 0.135149,0.09928 0.135149,0.270297 0,0.07508 0.03358,0.158092 0,0.225247 -0.03358,0.06716 -0.121159,0.08876 -0.180198,0.135149 -0.491485,0.386167 -0.290816,0.331739 -0.765842,0.450495 -0.09635,0.02409 -0.418839,0.05844 -0.495544,0.135149 -0.01062,0.01062 -0.01062,0.03443 0,0.04505 0.01062,0.01062 0.03003,0 0.04505,0 0.07508,0 0.150165,0 0.225248,0 0.04599,0 0.29346,0.0073 0.315346,0 0.02015,-0.0067 0.02605,-0.03555 0.04505,-0.04505 0.01343,-0.0067 0.03443,0.01062 0.04505,0 0.06007,-0.06007 -0.07508,-0.04505 0.04505,-0.04505 0.08231,0 0.04505,0.0108 0.04505,0.0901 0,0.01502 0,0.06007 0,0.04505 0,-0.06007 0.0099,-0.12095 0,-0.180198 -0.01018,-0.06107 -0.01433,-0.126441 -0.04505,-0.180198 -0.06538,-0.114421 -0.228969,-0.183919 -0.315347,-0.270297 -0.461303,-0.461304 0.322082,0.160409 -0.405445,-0.405445 -0.04274,-0.03324 -0.08672,-0.06589 -0.135149,-0.0901 -0.01343,-0.0067 -0.04505,0.01502 -0.04505,0 0,-0.01502 0.03003,0 0.04505,0 0.03003,0 0.06007,0 0.0901,0 0.319248,0 -0.07648,-0.01093 0.315347,0.04505 0.07433,0.01062 0.150165,0 0.225247,0 0.165182,0 0.330363,0 0.495545,0 0.04505,0 0.0901,0 0.135148,0 0.04505,0 0.09071,-0.0074 0.135149,0 0.04684,0.0078 0.08831,0.03724 0.135148,0.04505 0.103686,0.01728 0.210753,-0.01046 0.315347,0 0.09089,0.0091 0.179271,0.03746 0.270297,0.04505 0.238204,0.01985 0.616902,-0.02544 0.810891,-0.0901 0.102729,-0.03424 0.181266,-0.118561 0.270297,-0.180198 0.215374,-0.149106 0.504175,-0.334713 0.675743,-0.540594 0.09541,-0.11449 0.0901,-0.115043 0.0901,-0.225248 0,-0.01502 0.01062,-0.03443 0,-0.04505 -0.01062,-0.01062 -0.03003,0 -0.04505,0 -0.0901,0 -0.180198,0 -0.270297,0 -0.30033,0 -0.60066,0 -0.90099,0 -0.01093,0 -0.1337,0.0015 -0.135148,0 -0.01062,-0.01062 0.01343,-0.03833 0,-0.04505 -0.04029,-0.02015 -0.0901,0 -0.135149,0 -0.0901,0 -0.180198,0 -0.270297,0 -0.135148,0 -0.270297,0 -0.405446,0 -0.01502,0 -0.03443,-0.01062 -0.04505,0 -0.01062,0.01062 0,0.03003 0,0.04505 0,0.01502 0,0.03003 0,0.04505 0,0.06007 -0.0074,0.120596 0,0.180198 0.03388,0.271016 0.03115,0.121249 0.225247,0.315347 0.05309,0.05309 0.08206,0.127106 0.135149,0.180198 0.05309,0.05309 0.120132,0.0901 0.180198,0.135148 0.06007,0.04505 0.116528,0.09535 0.180198,0.135149 0.05695,0.03559 0.12189,0.05678 0.180198,0.0901 0.04701,0.02686 0.08672,0.06589 0.135149,0.0901 0.01343,0.0067 0.0308,-0.0048 0.04505,0 0.03186,0.01062 0.05824,0.03443 0.0901,0.04505 0.02849,0.0095 0.06886,-0.02124 0.0901,0 0.01062,0.01062 -0.01062,0.03443 0,0.04505 0.175816,0.175816 0.02419,-0.01043 0.135149,0.04505 0.01899,0.0095 0.02605,0.03555 0.04505,0.04505 0.01343,0.0067 0.03003,0 0.04505,0 0.03003,0.01502 0.06324,0.0249 0.0901,0.04505 0.03398,0.02548 0.06007,0.06007 0.0901,0.0901 0.01502,0.01502 0.02606,0.03555 0.04505,0.04505 0.01343,0.0067 0.03443,-0.01062 0.04505,0 0.01062,0.01062 -0.01343,0.03833 0,0.04505 0.25528,0 0.01502,-0.03003 0.0901,0.04505 0.01062,0.01062 0.03443,-0.01062 0.04505,0 0.01062,0.01062 0,0.03003 0,0.04505 0,0.01502 0,0.03003 0,0.04505 0,0.04505 0.02015,0.09485 0,0.135148 -0.01899,0.03799 -0.06357,0.05693 -0.0901,0.0901 -0.243031,0.303789 0.107538,-0.04457 -0.270297,0.270297 -0.275862,0.275862 0.07598,-0.05698 -0.180198,0.135149 -0.117339,0.08801 -0.04934,0.09153 -0.180198,0.135148 -0.03221,0.01074 -0.264758,0 -0.315346,0 -0.180198,0 -0.360396,0 -0.540594,0 -0.0901,0 -0.180199,0 -0.270298,0 -0.03003,0 -0.06007,0 -0.0901,0 -0.03003,0 -0.06096,0.0073 -0.0901,0 -0.03258,-0.0081 -0.05892,-0.03258 -0.0901,-0.04505 -0.04409,-0.01764 -0.09807,-0.01539 -0.135148,-0.04505 -0.0453,-0.03624 -0.105219,-0.165388 -0.135149,-0.225247 -0.01502,-0.03003 -0.02642,-0.06216 -0.04505,-0.0901 -0.06629,-0.09943 -0.04505,0.02306 -0.04505,-0.135149 0,-0.01502 -0.01502,-0.04505 0,-0.04505 0.01502,0 0,0.03003 0,0.04505 0,0.01502 0,0.03003 0,0.04505 0,0.07508 0,0.150165 0,0.225248 0,0.01502 -0.01343,0.03833 0,0.04505 0.02686,0.01343 0.06511,-0.01666 0.0901,0 0.0049,0.0033 0.07813,0.162251 0.0901,0.180198 0.02356,0.03534 0.06654,0.05476 0.0901,0.0901 0.01863,0.02794 0.0249,0.06324 0.04505,0.0901 0.02548,0.03398 0.06007,0.06007 0.0901,0.0901 0.01502,0.01502 0.03833,0.0249 0.04505,0.04505 0.0095,0.02849 -0.02124,0.06886 0,0.0901 0.02124,0.02124 0.06161,-0.0095 0.0901,0 0.02015,0.0067 0.02605,0.03555 0.04505,0.04505 0.01343,0.0067 0.03443,-0.01062 0.04505,0 0.01062,0.01062 -0.01062,0.03443 0,0.04505 0.02124,0.02124 0.06324,-0.01343 0.0901,0 0.019,0.0095 0.02605,0.03555 0.04505,0.04505 0.01343,0.0067 0.03833,-0.01343 0.04505,0 0.01343,0.02686 -0.02124,0.06886 0,0.0901 0.02124,0.02124 0.06324,-0.01343 0.0901,0 0.01343,0.0067 -0.01062,0.03443 0,0.04505 0.01062,0.01062 0.03003,0 0.04505,0 0.02029,0 0.121438,0.0069 0.135149,0 0.01899,-0.0095 0.02605,-0.03555 0.04505,-0.04505 0.07663,-0.03832 0.0428,0.09911 0.0901,-0.0901 0.0073,-0.02914 -0.0073,-0.06096 0,-0.0901 0.0081,-0.03258 0.03691,-0.05752 0.04505,-0.0901 0.0022,-0.0089 0.0051,-0.29994 0,-0.315347 -0.0067,-0.02015 -0.03003,-0.03003 -0.04505,-0.04505 -0.0751,-0.07509 -0.156162,-0.14463 -0.225264,-0.22525 -0.140354,-0.163746 -0.132955,-0.17581 -0.225248,-0.360396 -0.04884,-0.09768 -0.113053,-0.20487 -0.135149,-0.315347 -0.0059,-0.02945 0.0073,-0.06096 0,-0.0901 -0.0081,-0.03258 -0.03443,-0.05824 -0.04505,-0.0901 -0.0095,-0.02849 0.0095,-0.06161 0,-0.0901 -0.01062,-0.03186 -0.03691,-0.05752 -0.04505,-0.0901 -0.0073,-0.02914 0.0059,-0.06065 0,-0.0901 -0.0093,-0.04656 -0.03353,-0.08908 -0.04505,-0.135148 -0.0036,-0.01457 0,-0.03003 0,-0.04505 0,-0.03003 0,-0.06007 0,-0.0901 0,-0.0901 0,-0.180198 0,-0.270297 0,-0.04505 0,-0.0901 0,-0.135149 0,-0.06007 -0.02366,-0.124988 0,-0.180198 0.03245,-0.07573 0.267777,-0.229523 0.315346,-0.270297 0.212384,-0.182043 0.04904,-0.09249 0.270298,-0.225248 0.02879,-0.01728 0.05824,-0.03443 0.0901,-0.04505 0.01424,-0.0048 0.03833,0.01343 0.04505,0 0.01343,-0.02686 -0.01343,-0.06324 0,-0.0901 0.0067,-0.01343 0.03003,0 0.04505,0 0.01502,0 0.03443,-0.01062 0.04505,0 0.01062,0.01062 -0.0083,0.03255 0,0.04505 0.02356,0.03534 0.07433,0.05066 0.0901,0.0901 0.02503,0.06257 -0.01668,0.158508 0,0.225248 0.0081,0.03258 0.03691,0.05752 0.04505,0.0901 0.0073,0.02914 -0.0049,0.06048 0,0.0901 0.01018,0.06107 0.03737,0.118762 0.04505,0.180198 0.0075,0.0596 0,0.120132 0,0.180198 0,0.120132 0,0.240264 0,0.360396 0,0.06007 -0.0066,0.1205 0,0.180198 0.0085,0.0761 0.03869,0.148943 0.04505,0.225248 0.0087,0.104752 0,0.210231 0,0.315346 0,0.105116 0,0.210231 0,0.315347 0,0.135148 0,0.270297 0,0.405445 0,0.01502 0,0.03003 0,0.04505 0,0.01502 0.01062,0.03443 0,0.04505 -0.01062,0.01062 -0.03443,-0.01062 -0.04505,0 -0.01062,0.01062 0.01343,0.03833 0,0.04505 -0.01192,0.006 -0.226025,0 -0.270297,0 -0.01654,0 -0.178385,0.0018 -0.180198,0 -0.01062,-0.01062 0,-0.03003 0,-0.04505 0,-0.01847 -0.0054,-0.211843 0,-0.225247 0.02011,-0.05027 0.05628,-0.09287 0.0901,-0.135149 0.02653,-0.03317 0.06007,-0.06007 0.0901,-0.0901 0.04505,-0.04505 0.0854,-0.09535 0.135149,-0.135148 0.02622,-0.02098 0.06216,-0.02642 0.0901,-0.04505 0.03534,-0.02356 0.0498,-0.07667 0.0901,-0.0901 0.02422,-0.0081 0.142056,0 0.180198,0 0.04441,0 0.134505,0 0.0901,0 -0.03003,0 -0.120132,0 -0.0901,0 0.03531,0 0.07063,0 0.10594,0"
       style="fill:none;stroke:#ff0003;stroke-width:0.0709543;stroke-linecap:butt;stroke-linejoin:miter;stroke-miterlimit:4;stroke-opacity:1;stroke-dasharray:none;filter:url(#filter4606)"
       transform="matrix(1.3661344,0,0,1.4539489,-6.6087236,-7.2404848)" />
    <path
       inkscape:connector-curvature="0"
       id="path4612"
       d="m 2.7980881,12.766747 c -0.1016334,-0.120719 0.050817,-0.275957 0,-0.403582 -0.011986,-0.03008 -0.053565,-0.04483 -0.080349,-0.06727 -0.026781,-0.02242 -0.046471,-0.05307 -0.080347,-0.06726 -0.023955,-0.01 -0.053565,0 -0.080349,0 -0.026781,0 -0.053565,0 -0.080349,0 -0.026781,0 -0.06837,-0.02005 -0.080347,0 -0.01507,0.02523 0,0.363537 0,0.403583 0,0.02242 0,0.04483 0,0.06726 0,0.02242 0.018937,0.0514 0,0.06726 -0.018937,0.01586 -0.06837,0.02005 -0.080349,0 -0.023955,-0.0401 0,-0.0897 0,-0.134528 0,-0.414188 -0.075753,-0.152595 0.2410432,-0.470845 0.06182,-0.06209 0.1003707,-0.138664 0.1606954,-0.201792 0.047324,-0.04952 0.1152436,-0.0838 0.1606954,-0.134528 0.035934,-0.0401 0.047129,-0.09282 0.080347,-0.134529 0.021011,-0.02638 0.063409,-0.03889 0.080349,-0.06726 0.011986,-0.02005 0,-0.04483 0,-0.06726 0,-0.02242 0.018937,-0.0514 0,-0.06727 -0.018937,-0.01586 -0.053929,0.0037 -0.080349,0 -0.1347076,-0.0188 -0.2660093,-0.05463 -0.4017389,-0.06726 -0.1064757,-0.0099 -0.2142606,0 -0.3213909,0 -0.1071303,0 -0.2142607,0 -0.3213909,0 -0.053565,0 -0.1228185,-0.03171 -0.1606955,0 -0.037877,0.03171 0,0.0897 0,0.134528 0,0.179245 -0.010506,0.268025 0.080349,0.470846 0.033907,0.07569 0.1071303,0.134528 0.1606955,0.20179 0.1187287,0.149085 0.3351648,0.370912 0.4017386,0.53811 0.00847,0.02127 0,0.04483 0,0.06727 0,0.186268 -0.080349,-0.05173 -0.080349,0.134528 0,0.02242 -0.023955,0.07729 0,0.06726 0.1727413,-0.0723 0.2889544,-0.269055 0.4820863,-0.269055 0.171493,0 0.2343302,0.237912 0.4017388,0.269055 0.1169238,0.02175 0.2217318,-0.07892 0.3213909,-0.134528 0.2228473,-0.124376 0.4534033,-0.245039 0.6427846,-0.403583 0.136565,-0.114329 0.2350198,-0.258968 0.3213912,-0.403581 0.1978922,-0.331334 0.2162328,-0.637007 0.1606955,-1.008955 -0.024185,-0.16197 -0.068255,-0.327128 -0.1606955,-0.470847 -0.089952,-0.139843 -0.4001652,-0.456867 -0.642782,-0.538109 -0.049734,-0.01665 -0.1071303,0 -0.1606955,0 -0.026783,0 0.058921,-0.01344 0.080347,0 0.2787248,0.175003 0.4289135,0.45523 0.642782,0.672637 0.2290598,0.23285 0.4924566,0.440905 0.7231295,0.672636 0.2298238,0.230879 -0.031922,0.03408 0.080347,0.269055 0.035863,0.07507 0.1267886,0.126093 0.1606955,0.201792 0.04795,0.107043 0.065267,0.22269 0.080349,0.336317 0.1082717,0.815768 0.1305571,0.676875 0,1.278011 -0.194201,0.894173 0.06252,-0.09722 -0.2410433,0.53811 -0.022441,0.04695 0.027647,0.24591 0,0.269055 -0.018937,0.01586 -0.054364,-0.0054 -0.080347,0 -0.4569012,0.09562 -0.01186,0.06726 -0.5624341,0.06726 -0.2142607,0 -0.4285215,0 -0.642782,0 -0.1071303,0 -0.2142607,0 -0.3213909,0 -0.2044517,0 -0.2113307,0.02487 -0.4017386,-0.134528 -0.068283,-0.05716 -0.1071304,-0.134528 -0.1606956,-0.201792 -0.065449,-0.08219 -0.2888082,-0.361737 -0.321391,-0.470847 -0.012984,-0.0435 0.023955,-0.09443 0,-0.134528 -0.011986,-0.02005 -0.053566,0 -0.080347,0 -0.053565,0 -0.1228184,-0.03171 -0.1606956,0 -0.084693,0.07091 -0.1071302,0.17937 -0.1606953,0.269055 -0.080347,0.134528 -0.1719426,0.264744 -0.2410433,0.403581 -0.095112,0.191098 -0.215168,0.523286 -0.2410432,0.739902 -0.015998,0.133856 0,0.269054 0,0.403583 0,0.02626 0.037877,0.201789 -0.080349,0.201789 -0.084693,0 -0.1596074,-0.04777 -0.2410431,-0.06726 -0.106178,-0.02539 -0.2120735,-0.05418 -0.3213912,-0.06726 -0.079541,-0.0096 -0.1622561,0.01314 -0.24104306,0 -0.1698272,-0.02843 -0.3677732,-0.194146 -0.4017387,-0.336318 -0.050525,-0.211486 0.00173,-0.171772 0.080349,-0.33632 0.031454,-0.06584 0.042471,-0.138365 0.080347,-0.201789 0.043185,-0.07232 0.1071303,-0.134528 0.1606955,-0.201792 0.1071302,-0.134529 0.20551166,-0.274237 0.32139076,-0.403583 0.4986472,-0.556594 0.3103885,-0.231282 0.7231298,-0.807164 0.015125,-0.02111 0.227868,-0.444746 0.3213909,-0.470846 0.367304,-0.102505 0.00765,0.05766 0.1606954,0.134528 0.117104,0.05882 0.3406652,-0.03499 0.4017387,0.06726 0.064502,0.107999 -0.1369851,0.217218 -0.1606954,0.336317 -0.00622,0.03128 0.06628,0.09671 0.080347,0.06727 C 2.778243,13.043695 2.8801725,12.884547 2.798087,12.766743 2.6631385,12.573078 2.3521057,12.515244 2.1553063,12.363165 1.83214,12.113435 1.6261577,11.769428 1.351829,11.488737 1.25589,11.390577 1.1375682,11.309367 1.030438,11.219681 c -0.38800096,-0.324816 0.084041,0.08795 -0.32139096,-0.336317 -0.047324,-0.04952 -0.1268188,-0.07781 -0.1606955,-0.134528 -0.011986,-0.02005 0.053566,0 0.080349,0 0.026781,0 0.1071302,0 0.080347,0 -0.053566,0 -0.1606955,-0.04483 -0.1606955,0 0,0.05013 0.1183488,0.03181 0.1606955,0.06726 0.018937,0.01586 0,0.04483 0,0.06726 0,0.224213 0,0.448424 0,0.672637 0,0.134528 0,0.269055 0,0.403582 0,0.04483 -0.037877,0.102818 0,0.134528 0.040174,0.03362 0.2008694,-0.03362 0.2410432,0 0.018937,0.01586 0,0.04483 0,0.06726 0,0.04483 0,0.0897 0,0.134529 0,0.02242 0.00847,0.04598 0,0.06727 -0.1939975,0.487218 0.023165,-0.106058 -0.1606955,0.201791 -0.023955,0.0401 0.023955,0.09443 0,0.134528 -0.016944,0.02835 -0.063409,0.03889 -0.080347,0.06726 -0.011986,0.02005 0.018937,0.0514 0,0.06726 -0.018937,0.01586 -0.06141,-0.01585 -0.080347,0 -0.018937,0.01586 0.018937,0.0514 0,0.06727 -0.053565,0.04483 -0.1528515,-0.04755 -0.1606955,-0.06727 -0.00507,-0.01269 -0.00507,-0.390842 0,-0.403583 0.011986,-0.03008 0.050046,-0.04824 0.080347,-0.06727 0.077253,-0.04851 0.1606955,-0.0897 0.2410431,-0.134528 0.080347,-0.04483 0.1522862,-0.102684 0.24104336,-0.134529 0.1014996,-0.03641 0.2320843,-0.01284 0.321391,-0.06727 0.2144224,-0.130542 0.3749552,-0.313895 0.5624332,-0.470844 0.1874781,-0.156949 0.3749561,-0.313898 0.562434,-0.470845 0.053565,-0.04483 0.1186753,-0.08177 0.1606956,-0.134529 0.014857,-0.01866 -0.014857,-0.04861 0,-0.06726 0.04202,-0.05276 0.1186751,-0.08177 0.1606954,-0.134528 0.013252,-0.01665 0,-0.234526 0,-0.269056 0,-0.06727 0,-0.134529 0,-0.201791 0,-0.02242 -0.026783,-0.06726 0,-0.06726 0.026781,0 0.011986,0.04721 0,0.06726 -0.1182239,0.197943 -0.080349,-0.104416 -0.080349,0.201791 0,0.291475 0,0.582952 0,0.874428 0,0.112104 -0.023955,0.226021 0,0.336319 0.030301,0.139514 0.1028088,0.270314 0.1606954,0.403582 0.1367853,0.314905 0.1529923,0.323419 0.321391,0.605372 0.053566,0.0897 0.1186395,0.175169 0.1606955,0.269055 0.038775,0.08656 0.030962,0.18637 0.080349,0.269055 0.033876,0.05672 0.1268189,0.07781 0.1606956,0.134528 0.00945,0.01581 0,0.224867 0,0.269055 0,0.02242 0.018937,0.0514 0,0.06726 -0.018937,0.01586 -0.058063,-0.01239 -0.080349,0 -0.094546,0.05276 -0.1606953,0.134528 -0.2410431,0.201793 -0.049595,0.04152 -0.1496588,0.10552 -0.080349,0.134528 0.04791,0.02005 0.1071302,0 0.1606954,0 0.3873808,0 0.6101238,-0.08323 0.9641728,-0.201793 0.1339151,-0.04483 0.2727387,-0.08053 0.4017407,-0.134528 0.215779,-0.09032 0.5347289,-0.268392 0.7231297,-0.403583 0.086273,-0.0619 0.1606954,-0.134528 0.2410431,-0.20179 0.1067202,-0.08935 0.202968,-0.14156 0.2410434,-0.269055 0.012984,-0.0435 0,-0.0897 0,-0.134528 0,-0.324363 0.00644,-0.422389 -0.1606955,-0.807164 -0.033001,-0.07598 -0.1045678,-0.136006 -0.1606956,-0.201792 -0.077836,-0.09123 -0.1667616,-0.175777 -0.2410433,-0.269055 -0.03322,-0.04171 -0.032437,-0.104446 -0.080348,-0.134528 -0.1297154,-0.08146 -0.2588983,-0.06727 -0.4017387,-0.06727 -0.080347,0 -0.1637863,-0.01848 -0.2410431,0 -0.1151671,0.02755 -0.2077621,0.102818 -0.3213911,0.134528 -0.2095212,0.05846 -0.4534005,0.0394 -0.6427819,0.134528 -0.4023295,0.202088 -1.2438833,0.883418 -1.6069548,1.210748 -0.1423358,0.128317 -0.2692787,0.26805 -0.4017385,0.403581 -0.2546005,0.260506 -0.3436047,0.315546 -0.4820867,0.605373 -0.041374,0.08661 0.1506632,0.320921 0.1606956,0.336319 0.2068347,0.317448 0.3897817,0.583202 0.6427818,0.874427 0.1096648,0.126242 0.3316997,0.294945 0.4017386,0.470847 0.00847,0.02127 0,0.04483 0,0.06726 0,0.0897 0.06227,0.196076 0,0.269055 -0.2115438,0.247934 -0.4390612,0.201791 -0.7231295,0.201791 -0.3370577,0 -0.72132876,0.01388 -1.04452066,-0.06727 -0.072558,-0.01821 -0.1071303,-0.0897 -0.1606955,-0.134528 -0.1764013,-0.147681 -0.3276871,-0.217604 -0.4017386,-0.403581 -0.00847,-0.02127 0,-0.04483 0,-0.06726 0,-0.04483 0,-0.0897 0,-0.134528 0,-0.362184 0.00271,-0.07633 0.1606955,-0.605372 0.015802,-0.05291 0,-0.333633 0,-0.403583 0,-0.02242 -0.023955,-0.05722 0,-0.06726 0.04791,-0.02005 0.1098787,0.01418 0.1606954,0 0.035934,-0.01 0.04647,-0.05307 0.080347,-0.06726 0.023955,-0.01 0.053566,0 0.080347,0 0.053565,0 0.1081702,-0.0088 0.1606955,0 0.09333,0.01563 0.30991266,0.08329 0.40173856,0.134528 0.1053093,0.05878 0.1692083,0.201791 0.321391,0.201791 0.026781,0 0,-0.04483 0,-0.06727 0,-0.04483 0,-0.08969 0,-0.134528 0,-0.201789 0,-0.403581 0,-0.605372"
       style="fill:none;stroke:#ff9000;stroke-width:0.10000002;stroke-linecap:butt;stroke-linejoin:miter;stroke-miterlimit:4;stroke-opacity:1;stroke-dasharray:none" />
    <path
       style="fill:none;stroke:#ff0400;stroke-width:0.10000001000000000;stroke-linecap:butt;stroke-linejoin:miter;stroke-miterlimit:4;stroke-opacity:1;stroke-dasharray:none;filter:url(#filter4649)"
       d="m 9.6111152,13.23701 c 0.274259,-0.08123 0.5365938,-0.06738 0.8209878,-0.06738 0.0548,0 0.125206,-0.03177 0.166941,0 0.03876,0.03177 -0.0133,0.09118 0,0.134764 0.01478,0.04872 0.08347,0.08454 0.08347,0.134764 0,0.151073 -0.113284,0.25151 -0.244449,0.33691 -0.07751,0.05059 -0.155016,0.104688 -0.244448,0.134764 -0.05085,0.01668 -0.107322,0 -0.16694,0 -0.04734,0 -0.3815788,-0.01228 -0.4113888,0 -0.03464,0.01421 -0.06558,0.03897 -0.08347,0.06738 -0.01222,0.02009 0,0.04492 0,0.06738 0,0.176092 -0.01639,0.06738 0.244447,0.33691 0.131168,0.136984 0.2921468,0.258332 0.4113888,0.404294 0.27426,0.33691 0.184827,0.374344 0.411389,0.67382 0.07155,0.09523 0.178864,0.172021 0.244448,0.269528 0.04293,0.06167 0.0341,0.143049 0.08347,0.202146 0.01514,0.01869 0.05473,0 0.08347,0 0.02737,0 0.05765,0.01005 0.08347,0 0.03464,-0.01421 0.07155,-0.03725 0.08347,-0.06738 0.01729,-0.04262 -0.01336,-0.09118 0,-0.134764 0.01473,-0.04872 0.05473,-0.08984 0.08347,-0.134764 0,-0.06738 -0.01604,-0.136073 0,-0.202146 0.03511,-0.144084 0.143092,-0.112141 0.08347,-0.269528 -0.01222,-0.03013 -0.0548,-0.04492 -0.08347,-0.06738 -0.125205,-0.103121 -0.262335,-0.195241 -0.327918,-0.33691 -0.018,-0.03685 0,-0.347188 0,-0.404293 0,-0.04492 0,-0.08984 0,-0.134764 0,-0.04492 -0.02445,-0.09459 0,-0.134764 0.160978,-0.268626 0.0954,-0.09305 0.244448,-0.134765 0.506783,-0.139416 -0.274259,0.0054 0.411389,-0.134764 0.03374,-0.0069 0.155015,0.0082 0.16694,0 0.01937,-0.01588 -0.01514,-0.04869 0,-0.06738 0.04292,-0.05286 0.131167,-0.07794 0.16694,-0.134764 0.02451,-0.04018 0,-0.08984 0,-0.134764 0,-0.04492 0,-0.08984 0,-0.134764 0,-0.08984 0.02653,-0.182367 0,-0.269528 -0.02969,-0.09744 -0.113285,-0.178084 -0.16694,-0.269528 -0.41735,-0.756314 -0.292145,-0.743579 -1.149504,-1.684551 -0.149053,-0.165661 -0.381577,-0.271724 -0.572365,-0.404292 -0.1371298,-0.09207 -0.2742588,-0.179686 -0.4113888,-0.269529 -0.13713,-0.08985 -0.244448,-0.220378 -0.411389,-0.269527 -0.155015,-0.04606 -0.327918,-0.01346 -0.494858,0 -0.113284,0.0093 -0.256372,-0.003 -0.327919,0.06738 -0.113284,0.107857 -0.125205,0.26648 -0.16694,0.404292 -0.0954,0.310273 -0.08347,0.566001 -0.08347,0.875966 0,0.04491 0,0.08985 0,0.134765 0,0.02247 -0.02445,0.05733 0,0.06738 0.04895,0.02009 0.107321,0 0.16694,0 0.143092,0 0.476972,-0.03751 0.572366,0.06738 0.05199,0.05682 0.04806,0.136858 0.08347,0.202146 0.196751,0.375396 0.149054,0.150834 0.244449,0.539053 0.03267,0.13397 0.01336,0.279916 0.08347,0.404293 0.07155,0.130927 0.310031,0.193805 0.327918,0.33691 0.01587,0.130317 -0.19675,0.212663 -0.244448,0.33691 -0.07155,0.170464 0.05962,0.366284 0,0.539057 -0.02707,0.07787 -0.101359,0.138909 -0.16694,0.202146 -0.184827,0.189572 -0.393502,0.280409 -0.657029,0.134768 -0.03226,-0.01762 -0.0548,-0.04492 -0.08347,-0.06738 -0.05473,-0.04492 -0.107322,-0.08984 -0.16694,-0.134764 -0.02737,-0.02246 -0.04341,-0.06738 -0.08347,-0.06738 -0.02743,0 0,0.04492 0,0.06738 0,0.04492 0,0.08984 0,0.134764 0,0.202146 0,0.404292 0,0.606438 0,0.04492 0,0.08984 0,0.134764 0,0.02246 0.02737,0.06738 0,0.06738 -0.119246,0 -0.08347,-0.175832 -0.08347,-0.202146 0,-0.08984 0,-0.179685 0,-0.269528 0,-0.426753 0,-0.853507 0,-1.28026 0,-0.06738 0,-0.134764 0,-0.202145 0,-0.02246 -0.01937,-0.0515 0,-0.06738 0.01937,-0.01588 0.05473,0 0.08347,0 0.226562,0 0.232524,-0.03013 0.411389,0.06738 0.03219,0.01762 0.04537,0.05734 0.08347,0.06738 0.05199,0.01421 0.107321,0 0.16694,0 0.02743,0 0.08347,-0.02246 0.08347,0 0,0.03177 -0.04752,0.05318 -0.08347,0.06738 -0.02432,0.01 -0.411389,0 -0.494859,0 -0.02743,0 -0.0548,0 -0.08347,0 -0.02737,0 -0.08347,-0.02246 -0.08347,0 0,0.02246 0.05473,0 0.08347,0 -0.08347,0 -0.172902,-0.02502 -0.244448,0 -0.07155,0.02359 -0.0954,0.102079 -0.166938,0.134764 -0.07155,0.03654 -0.16694,0.03562 -0.244449,0.06738 -0.05527,0.02268 -0.310032,0.185337 -0.411387,0.202146 -0.08347,0.01322 -0.16694,0 -0.244449,0 -0.190788,0 -0.381578,0 -0.572367,0 -0.05473,0 -0.107322,0 -0.16694,0 -0.05473,0 -0.113284,0.02009 -0.16694,0 -0.02445,-0.01005 -0.01222,-0.04729 0,-0.06738 0.01735,-0.02841 0.06559,-0.03897 0.08347,-0.06738 0.01222,-0.02009 -0.0086,-0.04607 0,-0.06738 0.01937,-0.04765 0.05939,-0.08813 0.08347,-0.134764 0.327919,-0.678286 -0.06559,0.143065 0.08347,-0.336911 0.01473,-0.04872 0.06559,-0.08711 0.08347,-0.134764 0.0086,-0.0213 -0.01932,-0.0515 0,-0.06738 0.01937,-0.01588 0.05473,0 0.08347,0 0.05962,0 0.298107,-0.0105 0.327917,0 0.08943,0.03007 0.155016,0.102862 0.244448,0.134763 0.101359,0.03648 0.2206,0.04194 0.327919,0.06738 0.08347,0.01951 0.16694,0.04101 0.244448,0.06738 0.05688,0.01865 0.107321,0.0552 0.16694,0.06738 0.05312,0.01089 0.107321,0 0.166941,0 0.02743,0 0.07155,-0.02009 0.08347,0 0.02445,0.04017 -0.0245,0.09459 0,0.134765 0.01222,0.02009 0.06559,-0.01588 0.08347,0 0.01937,0.01588 0,0.04492 0,0.06738 0,0.02246 0,0.04492 0,0.06738 0,0.08984 0,0.179685 0,0.269528 0,0.134764 0,0.269529 0,0.404293 0,0.134764 -0.01491,0.270082 0,0.404292 0.02528,0.228114 0.131167,0.446534 0.16694,0.673821 0.01023,0.06686 -0.01604,0.136072 0,0.202146 0.0121,0.04925 0.05473,0.08984 0.08347,0.134764 0.02737,0.04492 0.03882,0.09925 0.08347,0.134764 0.01937,0.01588 0.05765,-0.01005 0.08347,0 0.375617,0.15419 -0.345804,-0.02793 0.244449,0.134764 0.02599,0.0071 0.05473,0 0.08347,0 0.13713,0 0.274258,0 0.411388,0 0.08347,0 0.166941,0 0.244449,0 0.0548,0 0.113284,0.01421 0.16694,0 0.0954,-0.02642 0.4829338,-0.195591 0.5723658,-0.269528 0.0954,-0.07941 0.16694,-0.179686 0.244448,-0.269528 0.08347,-0.08984 0.172902,-0.174295 0.244449,-0.269529 0.07751,-0.101222 0.30407,-0.509203 0.327918,-0.606438 0.05199,-0.198875 0.04347,-0.405537 0.08347,-0.606439 0.04352,-0.226252 0.13713,-0.446024 0.16694,-0.673821 0.02576,-0.201035 -0.01443,-0.404641 0,-0.606438 0.02486,-0.346747 0.08347,-0.55499 0.166942,-0.875965 0.02737,-0.112299 0.06559,-0.223083 0.08347,-0.336911 0.0121,-0.0893 0,-0.179685 0,-0.269528 0,-0.202144 0,-0.404291 0,-0.606437 0,-0.03883 0.01497,-0.312351 0,-0.336911 -0.01729,-0.0284 -0.04752,-0.05317 -0.08347,-0.06738 -0.02451,-0.01002 -0.05473,0 -0.08347,0 -0.268296,0 -0.339842,-0.02842 -0.572365,0.06738 -0.339844,0.138266 -0.155017,0.102398 -0.411389,0.269527 -0.07751,0.05059 -0.16694,0.08418 -0.244448,0.134766 -0.05962,0.03968 -0.107322,0.0941 -0.166941,0.134767 -0.1073218,0.0719 -0.2205998,0.130248 -0.3279178,0.202147 -0.05945,0.04067 -0.107322,0.08985 -0.16694,0.134765 -0.24441,0.199693 -0.554442,0.439599 -0.739268,0.673819 -0.280221,0.358675 -0.339843,0.565861 -0.494859,0.943347 -0.05473,0.134765 -0.119246,0.266481 -0.16694,0.404293 -0.0024,0.0079 -0.0027,0.330356 0,0.33691 0.0035,0.0084 0.232524,0.196366 0.244448,0.202146 0.02445,0.01005 0.05473,0 0.08347,0 0.02743,0 0.06559,0.01588 0.08347,0 0.05813,-0.04773 -0.07155,-0.144153 -0.16694,-0.202146 -0.04901,-0.03013 -0.113284,-0.03952 -0.16694,-0.06738 -0.03219,-0.01762 -0.04543,-0.05734 -0.08347,-0.06738 -0.05193,-0.01421 -0.107321,0 -0.16694,0 -0.08347,0 -0.16694,0 -0.244449,0 -0.16694,0 -0.327917,0 -0.494857,0 -0.65226,0 -0.0049,-0.02179 -0.65703,0.06738 -0.05396,0.0074 -0.113284,-0.01421 -0.16694,0 -0.03672,0.01005 -0.06559,0.03897 -0.08347,0.06738 -0.01222,0.02009 0,0.04492 0,0.06738 0,0.06738 -0.02599,0.138222 0,0.202146 0.04525,0.111405 0.387541,0.631507 0.494859,0.741206 0.143092,0.150439 0.327919,0.269528 0.494859,0.404293 0.08347,0.06738 0.149053,0.149287 0.244447,0.202146 0.10136,0.05572 0.220599,0.08984 0.327919,0.134764 0.214638,0.08747 0.101359,0.06738 0.327918,0.06738 0.05473,0 0.107322,0 0.16694,0 0.05473,0 0.113284,0.02009 0.166941,0 0.125204,-0.05022 0.220599,-0.134764 0.327918,-0.202146 0.107322,-0.06738 0.220599,-0.134764 0.327919,-0.202146 0.220599,-0.134765 0.44716,-0.260503 0.657029,-0.404293 0.119246,-0.08134 0.1967508,-0.199049 0.3279178,-0.269528 0.02278,-0.01246 0.06559,0.01588 0.08347,0 0.04328,-0.03551 0.03887,-0.09925 0.08347,-0.134765 0.01937,-0.01588 0,0.04492 0,0.06738 0,0.179991 -0.01735,0.132942 0.08347,0.33691 0.02278,0.04663 0.06558,0.08604 0.08347,0.134764 0.0133,0.04358 0,0.08984 0,0.134764 0,0.06738 0,0.134765 0,0.202147 0,0.04492 -0.01735,0.09215 0,0.134764 0.01222,0.03013 0.06559,0.03897 0.08347,0.06738 0.01222,0.02009 0,0.04492 0,0.06738 0,0.02246 0,0.04492 0,0.06738"
       id="path4639"
       inkscape:connector-curvature="0" />
    <path
       inkscape:connector-curvature="0"
       id="path4614"
       d="m 9.6111152,13.23701 c 0.274259,-0.08123 0.5365938,-0.06738 0.8209878,-0.06738 0.0548,0 0.125206,-0.03177 0.166941,0 0.03876,0.03177 -0.0133,0.09118 0,0.134764 0.01478,0.04872 0.08347,0.08454 0.08347,0.134764 0,0.151073 -0.113284,0.25151 -0.244449,0.33691 -0.07751,0.05059 -0.155016,0.104688 -0.244448,0.134764 -0.05085,0.01668 -0.107322,0 -0.16694,0 -0.04734,0 -0.3815788,-0.01228 -0.4113888,0 -0.03464,0.01421 -0.06558,0.03897 -0.08347,0.06738 -0.01222,0.02009 0,0.04492 0,0.06738 0,0.176092 -0.01639,0.06738 0.244447,0.33691 0.131168,0.136984 0.2921468,0.258332 0.4113888,0.404294 0.27426,0.33691 0.184827,0.374344 0.411389,0.67382 0.07155,0.09523 0.178864,0.172021 0.244448,0.269528 0.04293,0.06167 0.0341,0.143049 0.08347,0.202146 0.01514,0.01869 0.05473,0 0.08347,0 0.02737,0 0.05765,0.01005 0.08347,0 0.03464,-0.01421 0.07155,-0.03725 0.08347,-0.06738 0.01729,-0.04262 -0.01336,-0.09118 0,-0.134764 0.01473,-0.04872 0.05473,-0.08984 0.08347,-0.134764 0,-0.06738 -0.01604,-0.136073 0,-0.202146 0.03511,-0.144084 0.143092,-0.112141 0.08347,-0.269528 -0.01222,-0.03013 -0.0548,-0.04492 -0.08347,-0.06738 -0.125205,-0.103121 -0.262335,-0.195241 -0.327918,-0.33691 -0.018,-0.03685 0,-0.347188 0,-0.404293 0,-0.04492 0,-0.08984 0,-0.134764 0,-0.04492 -0.02445,-0.09459 0,-0.134764 0.160978,-0.268626 0.0954,-0.09305 0.244448,-0.134765 0.506783,-0.139416 -0.274259,0.0054 0.411389,-0.134764 0.03374,-0.0069 0.155015,0.0082 0.16694,0 0.01937,-0.01588 -0.01514,-0.04869 0,-0.06738 0.04292,-0.05286 0.131167,-0.07794 0.16694,-0.134764 0.02451,-0.04018 0,-0.08984 0,-0.134764 0,-0.04492 0,-0.08984 0,-0.134764 0,-0.08984 0.02653,-0.182367 0,-0.269528 -0.02969,-0.09744 -0.113285,-0.178084 -0.16694,-0.269528 -0.41735,-0.756314 -0.292145,-0.743579 -1.149504,-1.684551 -0.149053,-0.165661 -0.381577,-0.271724 -0.572365,-0.404292 -0.1371298,-0.09207 -0.2742588,-0.179686 -0.4113888,-0.269529 -0.13713,-0.08985 -0.244448,-0.220378 -0.411389,-0.269527 -0.155015,-0.04606 -0.327918,-0.01346 -0.494858,0 -0.113284,0.0093 -0.256372,-0.003 -0.327919,0.06738 -0.113284,0.107857 -0.125205,0.26648 -0.16694,0.404292 -0.0954,0.310273 -0.08347,0.566001 -0.08347,0.875966 0,0.04491 0,0.08985 0,0.134765 0,0.02247 -0.02445,0.05733 0,0.06738 0.04895,0.02009 0.107321,0 0.16694,0 0.143092,0 0.476972,-0.03751 0.572366,0.06738 0.05199,0.05682 0.04806,0.136858 0.08347,0.202146 0.196751,0.375396 0.149054,0.150834 0.244449,0.539053 0.03267,0.13397 0.01336,0.279916 0.08347,0.404293 0.07155,0.130927 0.310031,0.193805 0.327918,0.33691 0.01587,0.130317 -0.19675,0.212663 -0.244448,0.33691 -0.07155,0.170464 0.05962,0.366284 0,0.539057 -0.02707,0.07787 -0.101359,0.138909 -0.16694,0.202146 -0.184827,0.189572 -0.393502,0.280409 -0.657029,0.134768 -0.03226,-0.01762 -0.0548,-0.04492 -0.08347,-0.06738 -0.05473,-0.04492 -0.107322,-0.08984 -0.16694,-0.134764 -0.02737,-0.02246 -0.04341,-0.06738 -0.08347,-0.06738 -0.02743,0 0,0.04492 0,0.06738 0,0.04492 0,0.08984 0,0.134764 0,0.202146 0,0.404292 0,0.606438 0,0.04492 0,0.08984 0,0.134764 0,0.02246 0.02737,0.06738 0,0.06738 -0.119246,0 -0.08347,-0.175832 -0.08347,-0.202146 0,-0.08984 0,-0.179685 0,-0.269528 0,-0.426753 0,-0.853507 0,-1.28026 0,-0.06738 0,-0.134764 0,-0.202145 0,-0.02246 -0.01937,-0.0515 0,-0.06738 0.01937,-0.01588 0.05473,0 0.08347,0 0.226562,0 0.232524,-0.03013 0.411389,0.06738 0.03219,0.01762 0.04537,0.05734 0.08347,0.06738 0.05199,0.01421 0.107321,0 0.16694,0 0.02743,0 0.08347,-0.02246 0.08347,0 0,0.03177 -0.04752,0.05318 -0.08347,0.06738 -0.02432,0.01 -0.411389,0 -0.494859,0 -0.02743,0 -0.0548,0 -0.08347,0 -0.02737,0 -0.08347,-0.02246 -0.08347,0 0,0.02246 0.05473,0 0.08347,0 -0.08347,0 -0.172902,-0.02502 -0.244448,0 -0.07155,0.02359 -0.0954,0.102079 -0.166938,0.134764 -0.07155,0.03654 -0.16694,0.03562 -0.244449,0.06738 -0.05527,0.02268 -0.310032,0.185337 -0.411387,0.202146 -0.08347,0.01322 -0.16694,0 -0.244449,0 -0.190788,0 -0.381578,0 -0.572367,0 -0.05473,0 -0.107322,0 -0.16694,0 -0.05473,0 -0.113284,0.02009 -0.16694,0 -0.02445,-0.01005 -0.01222,-0.04729 0,-0.06738 0.01735,-0.02841 0.06559,-0.03897 0.08347,-0.06738 0.01222,-0.02009 -0.0086,-0.04607 0,-0.06738 0.01937,-0.04765 0.05939,-0.08813 0.08347,-0.134764 0.327919,-0.678286 -0.06559,0.143065 0.08347,-0.336911 0.01473,-0.04872 0.06559,-0.08711 0.08347,-0.134764 0.0086,-0.0213 -0.01932,-0.0515 0,-0.06738 0.01937,-0.01588 0.05473,0 0.08347,0 0.05962,0 0.298107,-0.0105 0.327917,0 0.08943,0.03007 0.155016,0.102862 0.244448,0.134763 0.101359,0.03648 0.2206,0.04194 0.327919,0.06738 0.08347,0.01951 0.16694,0.04101 0.244448,0.06738 0.05688,0.01865 0.107321,0.0552 0.16694,0.06738 0.05312,0.01089 0.107321,0 0.166941,0 0.02743,0 0.07155,-0.02009 0.08347,0 0.02445,0.04017 -0.0245,0.09459 0,0.134765 0.01222,0.02009 0.06559,-0.01588 0.08347,0 0.01937,0.01588 0,0.04492 0,0.06738 0,0.02246 0,0.04492 0,0.06738 0,0.08984 0,0.179685 0,0.269528 0,0.134764 0,0.269529 0,0.404293 0,0.134764 -0.01491,0.270082 0,0.404292 0.02528,0.228114 0.131167,0.446534 0.16694,0.673821 0.01023,0.06686 -0.01604,0.136072 0,0.202146 0.0121,0.04925 0.05473,0.08984 0.08347,0.134764 0.02737,0.04492 0.03882,0.09925 0.08347,0.134764 0.01937,0.01588 0.05765,-0.01005 0.08347,0 0.375617,0.15419 -0.345804,-0.02793 0.244449,0.134764 0.02599,0.0071 0.05473,0 0.08347,0 0.13713,0 0.274258,0 0.411388,0 0.08347,0 0.166941,0 0.244449,0 0.0548,0 0.113284,0.01421 0.16694,0 0.0954,-0.02642 0.4829338,-0.195591 0.5723658,-0.269528 0.0954,-0.07941 0.16694,-0.179686 0.244448,-0.269528 0.08347,-0.08984 0.172902,-0.174295 0.244449,-0.269529 0.07751,-0.101222 0.30407,-0.509203 0.327918,-0.606438 0.05199,-0.198875 0.04347,-0.405537 0.08347,-0.606439 0.04352,-0.226252 0.13713,-0.446024 0.16694,-0.673821 0.02576,-0.201035 -0.01443,-0.404641 0,-0.606438 0.02486,-0.346747 0.08347,-0.55499 0.166942,-0.875965 0.02737,-0.112299 0.06559,-0.223083 0.08347,-0.336911 0.0121,-0.0893 0,-0.179685 0,-0.269528 0,-0.202144 0,-0.404291 0,-0.606437 0,-0.03883 0.01497,-0.312351 0,-0.336911 -0.01729,-0.0284 -0.04752,-0.05317 -0.08347,-0.06738 -0.02451,-0.01002 -0.05473,0 -0.08347,0 -0.268296,0 -0.339842,-0.02842 -0.572365,0.06738 -0.339844,0.138266 -0.155017,0.102398 -0.411389,0.269527 -0.07751,0.05059 -0.16694,0.08418 -0.244448,0.134766 -0.05962,0.03968 -0.107322,0.0941 -0.166941,0.134767 -0.1073218,0.0719 -0.2205998,0.130248 -0.3279178,0.202147 -0.05945,0.04067 -0.107322,0.08985 -0.16694,0.134765 -0.24441,0.199693 -0.554442,0.439599 -0.739268,0.673819 -0.280221,0.358675 -0.339843,0.565861 -0.494859,0.943347 -0.05473,0.134765 -0.119246,0.266481 -0.16694,0.404293 -0.0024,0.0079 -0.0027,0.330356 0,0.33691 0.0035,0.0084 0.232524,0.196366 0.244448,0.202146 0.02445,0.01005 0.05473,0 0.08347,0 0.02743,0 0.06559,0.01588 0.08347,0 0.05813,-0.04773 -0.07155,-0.144153 -0.16694,-0.202146 -0.04901,-0.03013 -0.113284,-0.03952 -0.16694,-0.06738 -0.03219,-0.01762 -0.04543,-0.05734 -0.08347,-0.06738 -0.05193,-0.01421 -0.107321,0 -0.16694,0 -0.08347,0 -0.16694,0 -0.244449,0 -0.16694,0 -0.327917,0 -0.494857,0 -0.65226,0 -0.0049,-0.02179 -0.65703,0.06738 -0.05396,0.0074 -0.113284,-0.01421 -0.16694,0 -0.03672,0.01005 -0.06559,0.03897 -0.08347,0.06738 -0.01222,0.02009 0,0.04492 0,0.06738 0,0.06738 -0.02599,0.138222 0,0.202146 0.04525,0.111405 0.387541,0.631507 0.494859,0.741206 0.143092,0.150439 0.327919,0.269528 0.494859,0.404293 0.08347,0.06738 0.149053,0.149287 0.244447,0.202146 0.10136,0.05572 0.220599,0.08984 0.327919,0.134764 0.214638,0.08747 0.101359,0.06738 0.327918,0.06738 0.05473,0 0.107322,0 0.16694,0 0.05473,0 0.113284,0.02009 0.166941,0 0.125204,-0.05022 0.220599,-0.134764 0.327918,-0.202146 0.107322,-0.06738 0.220599,-0.134764 0.327919,-0.202146 0.220599,-0.134765 0.44716,-0.260503 0.657029,-0.404293 0.119246,-0.08134 0.1967508,-0.199049 0.3279178,-0.269528 0.02278,-0.01246 0.06559,0.01588 0.08347,0 0.04328,-0.03551 0.03887,-0.09925 0.08347,-0.134765 0.01937,-0.01588 0,0.04492 0,0.06738 0,0.179991 -0.01735,0.132942 0.08347,0.33691 0.02278,0.04663 0.06558,0.08604 0.08347,0.134764 0.0133,0.04358 0,0.08984 0,0.134764 0,0.06738 0,0.134765 0,0.202147 0,0.04492 -0.01735,0.09215 0,0.134764 0.01222,0.03013 0.06559,0.03897 0.08347,0.06738 0.01222,0.02009 0,0.04492 0,0.06738 0,0.02246 0,0.04492 0,0.06738"
       style="fill:none;stroke:#ff9000;stroke-width:0.10000001;stroke-linecap:butt;stroke-linejoin:miter;stroke-miterlimit:4;stroke-opacity:1;stroke-dasharray:none" />
    <path
       inkscape:connector-curvature="0"
       id="path4616"
       d="m 15.641302,11.169205 c 0.05501,0.09052 0.27324,0.225552 0.165007,0.271558 -0.108233,0.04601 -0.06623,-0.21254 -0.165007,-0.271558 -0.143548,-0.08576 -0.554812,-0.06789 -0.727846,-0.06789 -0.363517,0 -0.645178,-0.07662 -0.811691,0.271557 -0.02009,0.04203 0,0.09053 0,0.135781 0,0.04525 -0.02784,0.09697 0,0.13578 0.05906,0.08233 0.16234,0.135781 0.243506,0.20367 0.05411,0.04525 0.101116,0.09737 0.16234,0.13578 0.0484,0.03037 0.106161,0.0491 0.16234,0.06789 0.07944,0.02658 0.166989,0.03588 0.243509,0.06789 0.03422,0.01432 0.04694,0.05357 0.08117,0.06789 0.0242,0.0101 0.06203,-0.016 0.08117,0 0.01914,0.016 0,0.04525 0,0.06789 0,0.04525 0,0.09052 0,0.13578 0,0.113146 0,0.226299 0,0.339447 0,0.06789 0.01586,0.137091 0,0.203669 -0.01189,0.04963 -0.0665,0.08668 -0.08117,0.135781 -0.01315,0.04391 0,0.09052 0,0.13578 0,0.02263 -0.0242,0.05776 0,0.06789 0.0484,0.02024 0.108971,-0.0074 0.16234,0 0.110034,0.01534 0.215777,0.04765 0.324677,0.06789 0.484651,0.09007 0.320689,0.06789 0.811691,0.06789 0.135278,0 0.281503,0.04458 0.405847,0 0.593777,-0.212844 0.767573,-0.393678 1.055198,-0.814674 0.01351,-0.01965 -0.01207,-0.04765 0,-0.06789 0.01712,-0.02863 0.06906,-0.03752 0.08117,-0.06789 0.01712,-0.04293 0,-0.09053 0,-0.135781 0,-0.02264 -0.01207,-0.04765 0,-0.06789 0.01712,-0.02863 0.06405,-0.03926 0.08117,-0.06789 0.01207,-0.02024 0,-0.04525 0,-0.06789 0,-0.02264 0.01913,-0.05189 0,-0.06789 -0.06897,-0.0577 -0.164124,-0.08835 -0.243506,-0.13578 -0.110089,-0.06577 -0.216452,-0.135781 -0.324677,-0.203669 -0.216451,-0.135781 -0.429187,-0.275803 -0.649353,-0.407337 -0.07939,-0.04743 -0.152935,-0.105475 -0.243509,-0.135781 -0.05025,-0.0168 -0.108232,0 -0.16234,0 -0.02706,0 -0.08117,-0.02264 -0.08117,0 0,0.03201 0.046,0.05528 0.08117,0.06789 0.157277,0.05638 0.326199,0.08686 0.487015,0.13578 0.06344,0.01929 0.515335,0.18125 0.649353,0.203669 0.106125,0.01775 0.216451,0 0.324677,0 0.02706,0 0.05411,0 0.08117,0 0.02706,0 0.06203,0.016 0.08117,0 0.01913,-0.016 0,-0.04525 0,-0.06789 0,-0.02263 0.0242,-0.05776 0,-0.06789 -0.0484,-0.02024 -0.117314,0.02511 -0.16234,0 -0.05034,-0.02808 -0.0476,-0.09367 -0.08117,-0.135781 -0.02123,-0.02663 -0.05994,-0.04126 -0.08117,-0.06789 -0.04942,-0.06201 -0.06928,-0.164754 -0.16234,-0.203669 -0.0484,-0.02024 -0.113945,0.02024 -0.16234,0 -0.03422,-0.01432 -0.06405,-0.03927 -0.08117,-0.06789 -0.01207,-0.02024 0.0242,-0.05776 0,-0.06789 -0.0484,-0.02024 -0.111008,0.01432 -0.162341,0 -0.03631,-0.0101 -0.04694,-0.05357 -0.08117,-0.06789 -0.0242,-0.0101 -0.06204,0.016 -0.08117,0 -0.01914,-0.016 0.01913,-0.05189 0,-0.06789 -0.01914,-0.016 -0.05411,0 -0.08117,0 -0.02706,0 -0.05411,0 -0.08117,0 -0.05411,0 -0.109278,-0.0089 -0.16234,0 -0.08389,0.01402 -0.16234,0.04526 -0.243508,0.06789 -0.08117,0.02263 -0.170863,0.03008 -0.243507,0.06789 -0.147673,0.07687 -0.234571,0.271555 -0.408515,0.271555 -0.445315,0 -0.403169,-0.221302 -0.403169,-0.407336 0,-0.09053 0,-0.181039 0,-0.271558 0,-0.02263 0,-0.04525 0,-0.06789 0,-0.02264 0.01914,-0.05189 0,-0.06789 -0.01914,-0.016 -0.08117,-0.02263 -0.08117,0 0,0.03201 0.11944,0.06789 0.08117,0.06789 -0.0605,0 -0.101837,-0.06789 -0.16234,-0.06789 -0.126755,0 -0.08117,0.192777 -0.08117,0.339448 0,0.444775 0.02567,-0.03945 -0.08117,0.407337 -0.01063,0.04438 0,0.09053 0,0.135781 0,0.113145 0,0.226298 0,0.339446 0,0.173962 -0.02477,0.377352 0,0.543116 0.01063,0.07101 0.04746,0.13789 0.08117,0.203669 0.188345,0.367572 0.331979,0.465103 0.811691,0.611005 0.129656,0.03944 0.274966,0.03141 0.405847,0.06789 0.114791,0.03201 0.21346,0.09591 0.324677,0.13578 0.07865,0.0282 0.16234,0.04526 0.243506,0.06789 0.08117,0.02264 0.160502,0.05053 0.243508,0.06789 0.06647,0.01386 0.162341,-0.02289 0.162341,0 0,0.02264 -0.0555,-0.0071 -0.08117,0 -0.05739,0.016 -0.108233,0.04526 -0.162341,0.06789 -0.08117,0 -0.165457,-0.01866 -0.243506,0 -0.50555,0.120816 -0.148521,0.121132 -0.568185,0.271558 -0.102539,0.03675 -0.218844,0.03838 -0.324677,0.06789 -0.138232,0.03853 -0.262492,0.113974 -0.405845,0.13578 -0.159727,0.02429 -0.325343,-0.01236 -0.487015,0 -1.184702,0.09007 0.365767,0.06789 -0.811691,0.06789 -0.108233,0 -0.216451,0 -0.324677,0 -0.05411,0 -0.109836,0.011 -0.16234,0 -0.131043,-0.0274 -0.160989,-0.06677 -0.243508,-0.135781 -0.02706,-0.02263 -0.04696,-0.05357 -0.08117,-0.06789 -0.0242,-0.0101 -0.06906,0.02024 -0.08117,0 -0.04058,-0.06789 0.02029,-0.13578 0,-0.203668 -0.04149,-0.138854 -0.120828,-0.268486 -0.162341,-0.407336 -0.01604,-0.05348 0,-0.227274 0,-0.271558 0,-0.02264 0,0.04525 0,0.06789 0,0.04525 0,0.09052 0,0.13578 0,0.02264 -0.0085,0.04642 0,0.06789 0.08793,0.220616 0.361994,0.345883 0.568185,0.475225 0.255383,0.160201 0.352235,0.246257 0.649354,0.339448 0.104449,0.03276 0.215775,0.04765 0.324676,0.06789 0.134683,0.02503 0.268361,0.05831 0.405845,0.06789 0.188742,0.01311 0.37879,0 0.568185,0 0.16234,0 0.324677,0 0.487015,0 0.135278,0 0.270564,0 0.405845,0 0.108233,0 0.217539,0.01281 0.324677,0 0.219705,0.11539 0.209887,-0.103772 0.324676,-0.135781 0.05133,-0.01432 0.113945,0.02024 0.16234,0 0.0242,-0.0101 -0.01207,-0.04765 0,-0.06789 0.184553,-0.308717 4.58e-4,0.472932 0.162341,-0.339448 0.01784,-0.08929 -0.02625,-0.183741 0,-0.271558 0.01459,-0.04908 0.06204,-0.08777 0.08117,-0.13578 0.02567,-0.06441 -0.02568,-0.139262 0,-0.203668 0.01207,-0.03037 0.08117,-0.03588 0.08117,-0.06789 0,-0.02264 -0.05411,0 -0.08117,0 -0.08117,0 -0.16234,0 -0.243509,0 -0.108232,0 -0.217285,0.0113 -0.324676,0 -0.110702,-0.0116 -0.215776,-0.04765 -0.324677,-0.06789 -0.134683,-0.02503 -0.272746,-0.03752 -0.405845,-0.06789 -0.165097,-0.03766 -0.323462,-0.09369 -0.487015,-0.13578 -0.188264,-0.04845 -0.38934,-0.06675 -0.568185,-0.135781 -0.177151,-0.06839 -0.32241,-0.183948 -0.487015,-0.271558 -0.2662,-0.141687 -0.549154,-0.260948 -0.811691,-0.407336 -0.112557,-0.06277 -0.212115,-0.140905 -0.324677,-0.20367 -0.193069,-0.107659 -0.437491,-0.132796 -0.649353,-0.203669 -0.05411,-0.02264 -0.108233,-0.04526 -0.16234,-0.06789 -0.05411,0 -0.111008,0.01432 -0.16234,0 -0.03631,-0.0101 -0.04696,-0.05357 -0.08117,-0.06789 -0.0484,-0.02024 -0.117313,0.02511 -0.16234,0 -0.06367,-0.03551 -0.09867,-0.100276 -0.16234,-0.135781 -0.0225,-0.01251 -0.08117,0.02263 -0.08117,0 0,-0.02264 0.05697,0.0101 0.08117,0 0.03422,-0.01432 0.04696,-0.05357 0.08117,-0.06789 0.153061,-0.064 0.32679,-0.08552 0.487015,-0.13578 0.136431,-0.04278 0.26762,-0.09725 0.405847,-0.135781 0.186864,-0.0521 0.384339,-0.07663 0.568183,-0.13578 0.169403,-0.05449 0.321785,-0.140859 0.487015,-0.203669 0.373577,-0.142035 0.368503,-0.127975 0.730523,-0.203668 0.108233,-0.02263 0.214241,-0.05469 0.324677,-0.06789 0.08036,-0.0096 0.16234,0 0.243507,0 0.108232,0 0.216451,0 0.324676,0 0.108233,0 0.223343,-0.03178 0.324677,0 0.126665,0.03972 0.207219,0.147535 0.324676,0.203667 0.229178,0.109529 0.217698,0.01775 0.405847,0.135781 0.06123,0.0384 0.108233,0.09052 0.16234,0.13578 0.02706,0.02263 0.05994,0.04126 0.08117,0.06789 0.03357,0.0421 0.05411,0.09052 0.08117,0.13578 0.05411,0.09052 0.124071,0.175547 0.162341,0.271558 0.04362,0.109468 0.03755,0.229978 0.08117,0.339448 0.09858,0.247319 0.196226,0.237946 0.243508,0.475226 0.01333,0.06697 -0.01586,0.137091 0,0.203669 0.06533,0.273194 0.05922,0.0312 0.16234,0.203667 0.009,0.01522 0,0.255426 0,0.271558 0,0.04369 0.01369,0.429283 0,0.475227 -0.04328,0.144777 -0.242134,0.293804 -0.405847,0.339447 -0.05133,0.01432 -0.108232,0 -0.16234,0 -0.05411,0 -0.109836,0.011 -0.16234,0 -0.0854,-0.01786 -0.37675,-0.179333 -0.405845,-0.203668 -0.06897,-0.0577 -0.101404,-0.139955 -0.16234,-0.203669 -0.0478,-0.04999 -0.108233,-0.09052 -0.16234,-0.13578 -0.08117,-0.06789 -0.150106,-0.147867 -0.243508,-0.203668 -0.09847,-0.05882 -0.216451,-0.09052 -0.324677,-0.135781 -0.36893,-0.154286 -0.315969,-0.141537 -0.730522,-0.271557 -0.160232,-0.05026 -0.321004,-0.10106 -0.487014,-0.135781 -0.02625,-0.0054 -0.05867,0.01251 -0.08117,0 -0.06367,-0.0355 -0.09867,-0.100275 -0.16234,-0.13578 -0.0225,-0.01251 -0.05411,0 -0.08117,0 -0.155637,0 -0.125674,-0.03067 -0.243508,0.06789 -0.02706,0.02264 -0.06405,0.03927 -0.08117,0.06789 -0.009,0.01522 0,0.255426 0,0.271558 0,0.08169 -0.01829,0.19509 0,0.271558 0.03358,0.140467 0.164304,0.364823 0.243506,0.475225 0.229718,0.320225 0.496244,0.618725 0.811692,0.882564 0.05411,0.04526 0.108233,0.09053 0.16234,0.135781 0.05411,0.04525 0.09867,0.100275 0.16234,0.13578 0.0225,0.01251 0.05697,-0.0101 0.08117,0 0.03422,0.01432 0.04933,0.05014 0.08117,0.06789 0.04088,0.14957 0.166989,0.03588 0.243509,0.06789 0.03422,0.01432 0.04694,0.05357 0.08117,0.06789 0.0242,0.0101 0.05411,0 0.08117,0 0.05411,0 0.108233,0 0.16234,0 0.243507,0 0.487015,0 0.730522,0 0.08117,0 0.16234,0 0.243508,0 0.02706,0 0.06204,-0.016 0.08117,0 0.01914,0.016 0,0.04526 0,0.06789 0,0.02264 0.01694,0.05021 0,0.06789 -0.188596,0.197176 -0.497858,0.391761 -0.730522,0.543116 -0.422889,0.275101 -0.266717,0.179431 -0.811691,0.407337 -0.239831,0.100291 -0.471428,0.206546 -0.730523,0.271558 -0.640666,0.160754 -0.166935,0.009 -0.730522,0.06789 -0.07748,0.0081 -0.401692,0.10867 -0.487015,0.06789 -0.150412,-0.07188 -0.269095,-0.182597 -0.405847,-0.271558 -0.106791,-0.06947 -0.229018,-0.123664 -0.324676,-0.203669 -0.09566,-0.08001 -0.158989,-0.183202 -0.243507,-0.271558 -0.08117,-0.08486 -0.16234,-0.101827 -0.243508,-0.203667 -0.01495,-0.01882 0.0085,-0.04642 0,-0.06789 -0.129566,-0.325113 -0.08117,0.108685 -0.08117,-0.407336 0,-0.09053 -0.02348,-0.183194 0,-0.271558 0.03322,-0.125021 0.192224,-0.432334 0.324676,-0.543116 0.09566,-0.08001 0.219039,-0.132993 0.324677,-0.203669 0.165007,-0.110418 0.311189,-0.241408 0.487015,-0.339447 0.151007,-0.08421 0.333103,-0.123212 0.487015,-0.203669 0.25333,-0.132435 0.07061,-0.178092 0.405845,-0.271558 0.07701,-0.02148 0.166502,0.02148 0.243508,0 0.09254,-0.0258 0.147277,-0.122368 0.243507,-0.13578 0.240195,-0.03349 0.487489,0.01266 0.730523,0 0.190945,-0.0099 0.377816,-0.05196 0.568183,-0.06789 0.08077,-0.0068 0.16234,0 0.243509,0 0.243506,0 0.487015,0 0.730521,0 0.05411,0 0.108233,0 0.16234,0 0.05411,0 0.124071,0.03201 0.16234,0 0.03827,-0.03201 0.03827,-0.103771 0,-0.13578 -0.03827,-0.03201 -0.111007,0.01432 -0.16234,0 -0.07976,-0.02224 -0.133926,-0.168021 -0.16234,-0.203668 -0.02123,-0.02663 -0.05411,-0.04525 -0.08117,-0.06789 -0.02706,-0.02264 -0.04486,-0.05776 -0.08117,-0.06789 -0.05133,-0.01432 -0.111007,0.01432 -0.16234,0 -0.300902,-0.0839 0.09894,-0.06789 -0.16234,-0.06789 -0.02706,0 -0.06906,0.02024 -0.08117,0 -0.0947,-0.15841 0.101458,-0.135781 -0.08117,-0.135781"
       style="fill:none;stroke:#ff9000;stroke-width:0.09999999;stroke-linecap:butt;stroke-linejoin:miter;stroke-miterlimit:4;stroke-opacity:1;stroke-dasharray:none" />
    <path
       style="fill:none;stroke:#ff9000;stroke-width:0.09999999;stroke-linecap:butt;stroke-linejoin:miter;stroke-miterlimit:4;stroke-opacity:1;stroke-dasharray:none"
       d="m 19.573103,12.975472 c 0.230415,-0.09682 0.340755,-0.341239 0.529326,-0.492432 0.348947,-0.279776 0.756884,-0.383991 1.184479,-0.422083 0.109291,-0.0097 0.220018,-0.01296 0.329021,0 0.08989,0.01062 0.185667,0.0206 0.263217,0.07035 0.08542,0.0548 0.06581,0.202613 0.06581,0.281389 0,0.02345 0.0098,0.04938 0,0.07035 -0.01388,0.02965 -0.04387,0.04689 -0.06581,0.07035 -0.04387,0.04689 -0.07999,0.103906 -0.13161,0.140696 -0.01417,0.01 -0.220794,0 -0.263217,0 -0.04387,0 -0.09511,0.02601 -0.13161,0 -0.04081,-0.02909 -0.04759,-0.09201 -0.0658,-0.140696 -0.02577,-0.06885 -0.0544,-0.137901 -0.06581,-0.211041 -0.01486,-0.09529 0,-0.375944 0,-0.492431 0,-0.04689 0,-0.0938 0,-0.140696 0,-0.02346 0.01551,-0.05377 0,-0.07035 -0.01551,-0.01658 -0.05029,0.01658 -0.06581,0 -0.01551,-0.01658 0.01551,-0.05377 0,-0.07035 -0.01551,-0.01658 -0.05599,-0.02097 -0.0658,0 -0.01962,0.04194 0.01962,0.09875 0,0.140696 -0.02774,0.05932 -0.111993,0.07778 -0.13161,0.140696 -0.02775,0.08898 0,0.187592 0,0.281389 0,0.0938 0,0.187592 0,0.281388 0,0.367817 -0.04277,0.84767 0.06581,1.195904 0.04654,0.149222 0.13161,0.281389 0.197413,0.422083 0.0658,0.140696 0.115791,0.2912 0.197414,0.422083 0.407639,0.653673 0.02166,-0.04719 0.329021,0.281389 0.03468,0.03707 0.03113,0.103625 0.0658,0.140696 0.01551,0.01658 0.06581,-0.02345 0.06581,0 0,0.182641 -0.09316,0.140696 -0.197412,0.140696 -0.06581,0 -0.13161,0 -0.197414,0 -0.08775,0 -0.176014,0.01031 -0.263217,0 -0.11116,-0.01327 -0.225176,-0.02594 -0.329022,-0.07035 -0.138067,-0.05904 -0.471088,-0.311071 -0.592238,-0.422083 -0.07065,-0.06474 -0.13161,-0.140696 -0.197414,-0.211042 -0.002,-0.0022 -0.236638,-0.267182 -0.263217,-0.281389 -0.124292,-0.06644 -0.03488,0.169535 -0.13161,-0.140696 -0.0069,-0.02225 -0.01551,-0.05377 0,-0.07035 0.01551,-0.01658 0.04544,0.0087 0.06581,0 0.698995,-0.2989 -0.15446,-0.03671 0.526434,-0.140696 0.06867,-0.01046 0.128996,-0.05815 0.197412,-0.07035 0.06491,-0.01156 0.13161,0 0.197414,0 0.08775,0 0.175478,0 0.263217,0 0.10967,0 0.219348,0 0.329022,0 0.08775,0 0.176155,-0.01171 0.263218,0 0.08975,0.01202 0.174007,0.05445 0.263217,0.07035 0.0411,0.0073 0.309799,-0.01374 0.329021,0 0.05162,0.03679 0.07999,0.103906 0.13161,0.140696 0.01629,0.01155 0.229435,0 0.263217,0 0.02194,0 0.06581,-0.02346 0.06581,0 0,0.02345 -0.04387,0 -0.06581,0 -0.231472,0 -0.298372,0.04076 -0.460629,-0.281389 -0.09866,-0.195867 -0.13535,-0.420794 -0.197414,-0.633124 -0.04763,-0.162942 -0.08465,-0.32927 -0.13161,-0.492432 -0.21361,-0.742162 -0.06315,-0.129327 -0.197412,-0.703472 -0.02194,-0.0938 -0.04807,-0.186584 -0.06581,-0.281389 -0.0042,-0.023 -0.01551,-0.05376 0,-0.07035 0.01551,-0.01658 0.04417,-0.0039 0.06581,0 0.110327,0.01966 0.228982,0.01688 0.32902,0.07035 0.04387,0.02345 0.0344,0.100408 0.0658,0.140696 0.07943,0.101907 0.188768,0.175271 0.263218,0.281389 0.05885,0.0839 0.08774,0.187593 0.13161,0.281389 0.02194,0.04689 0.05618,0.08927 0.06581,0.140696 0.01285,0.06899 0,0.140696 0,0.211043 0,0.04689 0.02434,0.101672 0,0.140696 -0.02721,0.04363 -0.08507,0.05376 -0.13161,0.07035 -0.210668,0.07506 -0.514888,0.129921 -0.723847,0.07035 -0.347399,-0.09903 -0.701296,-0.421628 -0.987065,-0.633126 -0.511613,-0.378646 -0.259826,-0.137073 -0.59224,-0.49243 -0.06581,-0.07035 -0.13161,-0.140696 -0.197412,-0.211042 -0.02194,-0.02345 -0.05599,-0.03888 -0.06581,-0.07035 -0.01388,-0.04449 0.0054,-0.09416 0,-0.140696 -0.01655,-0.14154 -0.04925,-0.280551 -0.06581,-0.422084 -0.0047,-0.03998 0.01081,-0.334386 0,-0.351737 -0.03441,-0.05518 -0.08774,-0.0938 -0.13161,-0.140696 -0.02194,-0.02345 -0.03805,-0.05551 -0.06581,-0.07035 -0.01962,-0.01046 -0.05599,0.02097 -0.0658,0 -0.01962,-0.04194 0.03103,-0.107528 0,-0.140696 -0.03103,-0.03317 -0.08775,0 -0.13161,0 -0.02194,0 -0.04387,0 -0.06581,0 -0.02194,0 -0.05029,-0.01658 -0.0658,0 -0.01551,0.01658 0,0.04689 0,0.07035 0,0.02346 0,0.04689 0,0.07035 0,0.117242 0,0.234491 0,0.351736 0,0.02345 0,0.04689 0,0.07035 0,0.02345 -0.0098,0.04938 0,0.07035 0.01388,0.02967 0.04984,0.04191 0.0658,0.07035 0.05047,0.08993 0.07894,0.192917 0.13161,0.281389 0.690258,1.159574 -0.02644,-0.03923 0.658043,0.77382 0.105814,0.125689 0.172512,0.283556 0.263217,0.422083 0.223736,0.341687 0.197414,0.155031 0.197414,0.422083 0,0.117242 0.04905,0.24687 0,0.351736 -0.04905,0.104874 -0.176978,0.138603 -0.263217,0.211042 -0.717918,0.603021 -0.424798,0.518028 -1.118674,0.703472 -0.14074,0.03762 -0.611803,0.09126 -0.723847,0.211043 -0.01551,0.01658 -0.01551,0.05376 0,0.07035 0.01551,0.01658 0.04387,0 0.06581,0 0.109671,0 0.219348,0 0.329023,0 0.06718,0 0.42866,0.0114 0.460629,0 0.02943,-0.01046 0.03805,-0.05551 0.0658,-0.07035 0.01962,-0.01046 0.05029,0.01658 0.06581,0 0.08774,-0.0938 -0.10967,-0.07035 0.06581,-0.07035 0.120231,0 0.0658,0.01686 0.0658,0.140696 0,0.02345 0,0.0938 0,0.07035 0,-0.0938 0.01446,-0.18887 0,-0.281389 -0.01487,-0.09536 -0.02093,-0.197445 -0.0658,-0.281389 -0.0955,-0.178675 -0.334457,-0.287199 -0.460631,-0.422083 -0.67383,-0.720351 0.470469,0.250487 -0.592238,-0.633124 -0.06243,-0.05191 -0.126673,-0.102891 -0.197413,-0.140696 -0.01962,-0.01046 -0.0658,0.02345 -0.0658,0 0,-0.02346 0.04386,0 0.0658,0 0.04387,0 0.08775,0 0.13161,0 0.466329,0 -0.111715,-0.01707 0.460631,0.07035 0.108574,0.01658 0.219347,0 0.32902,0 0.241283,0 0.482565,0 0.723848,0 0.06581,0 0.13161,0 0.197412,0 0.06581,0 0.132502,-0.01156 0.197414,0 0.06842,0.01218 0.128996,0.05815 0.197412,0.07035 0.151456,0.02698 0.30785,-0.01633 0.460631,0 0.132764,0.01421 0.261863,0.05849 0.394826,0.07035 0.347947,0.031 0.901115,-0.03973 1.184477,-0.140696 0.150058,-0.05347 0.264778,-0.18514 0.394826,-0.281389 0.314599,-0.232837 0.736454,-0.522673 0.987065,-0.844167 0.139367,-0.178782 0.13161,-0.179646 0.13161,-0.351737 0,-0.02345 0.01551,-0.05376 0,-0.07035 -0.01551,-0.01658 -0.04387,0 -0.0658,0 -0.13161,0 -0.263217,0 -0.394825,0 -0.438696,0 -0.877391,0 -1.316086,0 -0.01597,0 -0.195297,0.0023 -0.197413,0 -0.01551,-0.01658 0.01962,-0.05985 0,-0.07035 -0.05885,-0.03146 -0.13161,0 -0.197413,0 -0.13161,0 -0.263217,0 -0.394826,0 -0.197412,0 -0.394826,0 -0.592239,0 -0.02194,0 -0.05029,-0.01658 -0.06581,0 -0.01551,0.01658 0,0.04689 0,0.07035 0,0.02345 0,0.04689 0,0.07035 0,0.0938 -0.01081,0.188317 0,0.281389 0.04949,0.423206 0.0455,0.189337 0.32902,0.492431 0.07755,0.0829 0.119866,0.198483 0.197414,0.281389 0.07755,0.0829 0.175478,0.140696 0.263217,0.211041 0.08774,0.07035 0.170214,0.148894 0.263217,0.211043 0.08319,0.05558 0.178046,0.08867 0.263218,0.140696 0.06867,0.04194 0.126672,0.10289 0.197413,0.140696 0.01962,0.01046 0.04499,-0.0075 0.0658,0 0.04654,0.01658 0.08507,0.05376 0.13161,0.07035 0.04162,0.01483 0.100585,-0.03317 0.13161,0 0.01551,0.01658 -0.01551,0.05376 0,0.07035 0.256817,0.274547 0.03533,-0.01629 0.197414,0.07035 0.02774,0.01483 0.03805,0.05551 0.0658,0.07035 0.01962,0.01046 0.04387,0 0.06581,0 0.04387,0.02345 0.09238,0.03888 0.13161,0.07035 0.04963,0.03979 0.08774,0.0938 0.13161,0.140696 0.02194,0.02346 0.03807,0.05551 0.06581,0.07035 0.01962,0.01046 0.05029,-0.01658 0.0658,0 0.01551,0.01658 -0.01962,0.05986 0,0.07035 0.37289,0 0.02194,-0.04689 0.13161,0.07035 0.01551,0.01658 0.05029,-0.01658 0.06581,0 0.01551,0.01658 0,0.04689 0,0.07035 0,0.02346 0,0.04689 0,0.07035 0,0.07035 0.02943,0.148114 0,0.211041 -0.02774,0.05932 -0.09286,0.0889 -0.13161,0.140696 -0.354998,0.474383 0.157082,-0.0696 -0.394826,0.422084 -0.402954,0.430773 0.110985,-0.08898 -0.263217,0.211042 -0.171398,0.137432 -0.07207,0.142929 -0.263217,0.211041 -0.04705,0.01677 -0.386735,0 -0.460629,0 -0.263218,0 -0.526435,0 -0.789652,0 -0.13161,0 -0.263219,0 -0.394827,0 -0.04387,0 -0.08774,0 -0.13161,0 -0.04387,0 -0.08904,0.0114 -0.13161,0 -0.04759,-0.01265 -0.08606,-0.05087 -0.13161,-0.07035 -0.0644,-0.02755 -0.143252,-0.02403 -0.197413,-0.07035 -0.06617,-0.05659 -0.153694,-0.258262 -0.197413,-0.351735 -0.02194,-0.04689 -0.03859,-0.09707 -0.06581,-0.140696 -0.09683,-0.155266 -0.06581,0.03601 -0.06581,-0.211043 0,-0.02345 -0.02194,-0.07035 0,-0.07035 0.02194,0 0,0.04689 0,0.07035 0,0.02346 0,0.04689 0,0.07035 0,0.117242 0,0.234491 0,0.351737 0,0.02346 -0.01962,0.05985 0,0.07035 0.03923,0.02097 0.09511,-0.02602 0.13161,0 0.0072,0.0052 0.114125,0.253364 0.13161,0.281389 0.03441,0.05519 0.0972,0.08551 0.13161,0.140696 0.02721,0.04363 0.03637,0.09875 0.06581,0.140696 0.03722,0.05306 0.08775,0.0938 0.13161,0.140696 0.02194,0.02346 0.05599,0.03888 0.0658,0.07035 0.01388,0.04449 -0.03102,0.107529 0,0.140696 0.03103,0.03317 0.08999,-0.01484 0.13161,0 0.02943,0.01046 0.03805,0.05551 0.0658,0.07035 0.01962,0.01046 0.05029,-0.01658 0.06581,0 0.01551,0.01658 -0.01551,0.05376 0,0.07035 0.03103,0.03317 0.09238,-0.02097 0.13161,0 0.02775,0.01484 0.03805,0.05551 0.0658,0.07035 0.01962,0.01046 0.05599,-0.02097 0.06581,0 0.01962,0.04194 -0.03102,0.107529 0,0.140696 0.03103,0.03317 0.09238,-0.02097 0.13161,0 0.01962,0.01046 -0.01551,0.05376 0,0.07035 0.01551,0.01658 0.04387,0 0.06581,0 0.02964,0 0.177386,0.01078 0.197414,0 0.02774,-0.01483 0.03805,-0.05551 0.0658,-0.07035 0.111934,-0.05984 0.06252,0.154766 0.13161,-0.140696 0.01066,-0.0455 -0.01066,-0.09519 0,-0.140696 0.01183,-0.05087 0.05391,-0.08982 0.06581,-0.140696 0.0032,-0.0139 0.0074,-0.468372 0,-0.492431 -0.0098,-0.03147 -0.04387,-0.04689 -0.06581,-0.07035 -0.109699,-0.117257 -0.228107,-0.225848 -0.329046,-0.35174 -0.205016,-0.255699 -0.194208,-0.274537 -0.329022,-0.562778 -0.07134,-0.152533 -0.165137,-0.319916 -0.197413,-0.492431 -0.0086,-0.04599 0.01066,-0.09519 0,-0.140696 -0.01183,-0.05088 -0.05029,-0.09094 -0.06581,-0.140696 -0.01388,-0.04449 0.01388,-0.09621 0,-0.140696 -0.01551,-0.04975 -0.05391,-0.08982 -0.0658,-0.140696 -0.01066,-0.0455 0.0086,-0.09471 0,-0.140696 -0.01359,-0.07271 -0.04898,-0.139104 -0.06581,-0.211041 -0.0053,-0.02275 0,-0.04689 0,-0.07035 0,-0.04689 0,-0.0938 0,-0.140696 0,-0.140696 0,-0.281389 0,-0.422084 0,-0.07035 0,-0.140696 0,-0.211042 0,-0.0938 -0.03456,-0.195175 0,-0.281389 0.0474,-0.118256 0.391144,-0.358412 0.460629,-0.422083 0.310232,-0.28427 0.07163,-0.144428 0.394827,-0.351737 0.04205,-0.02698 0.08507,-0.05376 0.13161,-0.07035 0.0208,-0.0075 0.05599,0.02097 0.06581,0 0.01962,-0.04194 -0.01962,-0.09875 0,-0.140696 0.0098,-0.02097 0.04387,0 0.06581,0 0.02194,0 0.05029,-0.01658 0.0658,0 0.01551,0.01658 -0.01212,0.05083 0,0.07035 0.03442,0.05518 0.108575,0.07911 0.13161,0.140696 0.03656,0.09771 -0.02436,0.247519 0,0.351737 0.01183,0.05088 0.05391,0.08982 0.06581,0.140696 0.01066,0.0455 -0.0072,0.09444 0,0.140696 0.01487,0.09536 0.05459,0.185453 0.0658,0.281389 0.01096,0.09307 0,0.187592 0,0.281389 0,0.187592 0,0.375185 0,0.562777 0,0.0938 -0.0096,0.188168 0,0.281389 0.01242,0.118834 0.05652,0.232583 0.06581,0.351737 0.01271,0.163576 0,0.328287 0,0.49243 0,0.164144 0,0.328287 0,0.492431 0,0.211041 0,0.422083 0,0.633124 0,0.02346 0,0.04689 0,0.07035 0,0.02346 0.01551,0.05377 0,0.07035 -0.01551,0.01658 -0.05029,-0.01658 -0.06581,0 -0.01551,0.01658 0.01962,0.05986 0,0.07035 -0.01741,0.0094 -0.330157,0 -0.394825,0 -0.02416,0 -0.260569,0.0028 -0.263218,0 -0.01551,-0.01658 0,-0.04689 0,-0.07035 0,-0.02884 -0.0079,-0.330804 0,-0.351735 0.02938,-0.0785 0.08221,-0.145022 0.131611,-0.211042 0.03875,-0.0518 0.08774,-0.0938 0.13161,-0.140696 0.0658,-0.07035 0.124744,-0.148895 0.197413,-0.211041 0.0383,-0.03276 0.0908,-0.04126 0.13161,-0.07035 0.05162,-0.03679 0.07274,-0.119725 0.13161,-0.140696 0.03538,-0.01265 0.207503,0 0.263218,0 0.06487,0 0.196472,0 0.13161,0 -0.04387,0 -0.175479,0 -0.13161,0 0.05158,0 0.10317,0 0.154747,0"
       id="path4618"
       inkscape:connector-curvature="0" />
  </g>
</svg>
